<svg xmlns="http://www.w3.org/2000/svg" xmlns:xlink="http://www.w3.org/1999/xlink" xml:space="preserve">
	<!--
	<defs>
		<radialGradient id="radial-gradient" cx="139.41" cy="48.26" r="26.98" gradientTransform="translate(31.01 -85.53) rotate(26.1)" gradientUnits="userSpaceOnUse">
			<stop offset="0" stop-color="#ff7a99"/>
			<stop offset="0.22" stop-color="#ff7697"/>
			<stop offset="0.43" stop-color="#ff6b91"/>
			<stop offset="0.63" stop-color="#ff5886"/>
			<stop offset="0.84" stop-color="#ff3d78"/>
			<stop offset="1" stop-color="#ff2169"/>
		</radialGradient>
	</defs>
	-->

	<symbol id="logo" viewBox="0 0 180 60">
		<title>DigitPop</title>
		<g>
			<path fill="#ff2169" d="M148.3,18.08C143.51,9,132.52,6,123.39,10.77s-13,15.51-8.16,24.64c8.83,16.85,25,7.41,28.05,13.3C140.19,42.82,157.49,35.61,148.3,18.08Z"/>
			<path fill="#ff8fa8" d="M139.51,11.29a16.91,16.91,0,0,0-16.13.37c5.52-2.67,11.74-1.78,17.27,1.95,9.6,6.49,8.54,17.42,7.68,22C150.44,30,151.65,17.77,139.51,11.29Z"/>
			<path fill="#cc1b5b" d="M127.48,43.26c-10.26-4.84-14.37-16-10-25.4a15.71,15.71,0,0,1,4.11-5.08,17.3,17.3,0,0,0-5.09,6c-4.54,9.26-1.27,20.17,8,24.71a18.18,18.18,0,0,0,10.63,1.8A24.26,24.26,0,0,1,127.48,43.26Z"/>
			<path fill="#ffffff" d="M145.15,19.88a27.25,27.25,0,0,0-2.1-2.83c-.36-.46-.79-.88-1.19-1.31s-.84-.83-1.3-1.2a16.23,16.23,0,0,0-6.21-3.37,14.65,14.65,0,0,0-7-.21,13,13,0,0,0-6.13,3,.22.22,0,0,0,0,.3.21.21,0,0,0,.31,0h0a12.3,12.3,0,0,1,6-2.36,13.35,13.35,0,0,1,6.31.71,14.42,14.42,0,0,1,5.25,3.45c.38.36.72.77,1.07,1.16s.67.82,1,1.27a25.09,25.09,0,0,1,1.69,2.71l0,.05.06.09a1.35,1.35,0,1,0,2.23-1.51Zm2,4.12A1.46,1.46,0,1,0,146,25.8,1.52,1.52,0,0,0,147.14,24Z"/>
		</g>
		<path fill="#ffffff" d="M14.41,12.22c-.66-1.77-2.3-2.44-4.52-2.44H6.61C2.26,9.78.13,11.7.13,15.61V39.83c0,3.91,2.13,5.83,6.48,5.83H9.89c2.22,0,3.86-.66,4.52-2.44v2.44h5.66V0H14.41Zm0,26.43c0,2-.82,2.65-2.79,2.65H8.33c-2.13,0-2.54-.37-2.54-2.28V16.43c0-1.92.41-2.29,2.54-2.29h3.29c2,0,2.79.66,2.79,2.66Zm11.32,7h5.66V9.86H25.73ZM51.32,12.29c-.65-1.77-2.29-2.43-4.51-2.43H43.53c-4.35,0-6.48,1.92-6.48,5.83V39.83c0,3.91,2.13,5.83,6.48,5.83h3.28c2.22,0,3.86-.66,4.51-2.44V53.36c0,1.92-.41,2.28-2.54,2.28H38.28V60H50.5C54.85,60,57,58.08,57,54.17V9.86H51.32Zm0,26.36c0,2-.82,2.65-2.79,2.65H45.25c-2.13,0-2.54-.37-2.54-2.28V16.5c0-1.92.41-2.29,2.54-2.29h3.28c2,0,2.79.67,2.79,2.66Zm11.32,7H68.3V9.86H62.64ZM85.32,14.21V9.86H79.66V0H74V9.86H70.39v4.35H74V39.83c0,3.91,2.13,5.83,6.48,5.83h4.84V40.93H82.2c-2.13,0-2.54-.36-2.54-2.28V14.21Z"/>
		<path fill="#ff2169" d="M108.79,9.83H91.4a3,3,0,0,0-3,3V42.53a3,3,0,1,0,5.92,0V15.75h14.43a4,4,0,0,1,3,1.4,3.79,3.79,0,0,1,1.36,3,4,4,0,0,1-1.33,3.13,4.29,4.29,0,0,1-3.32,1.36l-4.89.06a3,3,0,0,0,0,5.92h0l4.88-.06A10.19,10.19,0,0,0,116,27.49a9.86,9.86,0,0,0,3.1-7.35,9.71,9.71,0,0,0-3.15-7.24A10,10,0,0,0,108.79,9.83Zm68.06,3.07a10,10,0,0,0-7.13-3.07H152.33a3,3,0,0,0-3,3V42.53a3,3,0,1,0,5.91,0V15.75h14.43a4.05,4.05,0,0,1,3,1.4,3.82,3.82,0,0,1,1.35,3,4,4,0,0,1-1.33,3.13,4.24,4.24,0,0,1-3.28,1.36h0l-4.9.06a3,3,0,0,0,0,5.92h0l4.87-.06a10.17,10.17,0,0,0,7.41-3.06,9.84,9.84,0,0,0,3.1-7.35A9.71,9.71,0,0,0,176.85,12.9Z"/>
	</symbol>

	<symbol id="icon_menu" viewBox="0 0 58 58">
		<title>Menu</title>
		<path d="M29,0A29,29,0,1,0,58,29,29,29,0,0,0,29,0Zm0,56A27,27,0,1,1,56,29,27,27,0,0,1,29,56ZM40.5,21.5h-23a1.5,1.5,0,0,0,0,3h23a1.5,1.5,0,0,0,0-3Zm0,6h-23a1.5,1.5,0,0,0,0,3h23a1.5,1.5,0,0,0,0-3Zm0,6h-23a1.5,1.5,0,0,0,0,3h23a1.5,1.5,0,0,0,0-3Z"/>
	</symbol>
	
	<!-- Providers -->
	<symbol id="provider_spotify" viewBox="0 0 400 225">
		<title>Spotify</title>
		<path d="M172.51,111.14c-8.88-2.27-11.75-3.54-11.75-6.92,0-4.2,4.12-5.07,6.69-5.07a17.91,17.91,0,0,1,7.79,2.19,21.89,21.89,0,0,1,3.28,2.19.81.81,0,0,0,1.17-.18l3.79-5.51a.88.88,0,0,0-.17-1.17C175.42,90.49,168.94,91,167.45,91c-12.24,0-15.4,8.79-15.4,13.86a12,12,0,0,0,2.5,7.92c3.56,4.31,13.08,6.15,16.87,7.26s4.86,3.25,4.86,4.78c0,.72.3,5.52-7.38,5.52-6.45,0-11.18-4-12.8-5.55a.81.81,0,0,0-1.19.08l-4.26,5.2a.89.89,0,0,0,0,1.15c4.9,5.12,12.62,7.33,18.25,7.33,9.33,0,16.1-5.33,16.1-13.78C185,115.57,178.29,112.69,172.51,111.14ZM207.09,102a13.64,13.64,0,0,0-10.55,5.23V103.6a.84.84,0,0,0-.82-.85h-7a.84.84,0,0,0-.83.85v43.8a.85.85,0,0,0,.83.86h7.05a.85.85,0,0,0,.83-.86V133.76s3.43,4.78,10.89,4.78c5.92,0,15.46-4.93,15.46-18.12S214,102,207.09,102Zm-1.82,28.76c-4.79,0-8.85-4.31-8.85-10.48,0-3.77,2.27-10.34,8.75-10.34s9,5.42,9,10.34S211.51,130.75,205.27,130.75ZM243.22,102c-11.07,0-17.94,9.45-17.94,18.35,0,9.76,7.31,18.29,18,18.29a18,18,0,0,0,18-18.29C261.3,110.84,254.29,102,243.22,102Zm.07,28.76c-4.52,0-9.45-3.93-9.45-10.44s4.45-10.38,9.45-10.38c3.85,0,9.31,3.3,9.31,10.38S247.81,130.75,243.29,130.75Zm39.33-28.09h-8V94.23a.84.84,0,0,0-.82-.85h-6.92a.84.84,0,0,0-.82.85v8.43h-3.38a.83.83,0,0,0-.82.85v6.22a.83.83,0,0,0,.82.85H266v17.61c0,4,1.74,10.23,9.33,10.23a18.17,18.17,0,0,0,7.6-1.81.86.86,0,0,0,.48-.77v-6.09a.66.66,0,0,0-1-.57,6.73,6.73,0,0,1-4,1.17c-3.63,0-3.82-2.56-3.82-4.37v-15.4h8a.84.84,0,0,0,.83-.85v-6.22A.84.84,0,0,0,282.62,102.66Zm8.69-15.35a5.54,5.54,0,1,0,5.34,5.54A5.44,5.44,0,0,0,291.31,87.31Zm3.45,15.35h-6.93a.84.84,0,0,0-.82.85V137a.84.84,0,0,0,.82.85h6.93a.84.84,0,0,0,.82-.85V103.51A.84.84,0,0,0,294.76,102.66Zm55.49,0h-7.72a.84.84,0,0,0-.78.57l-7.89,23.51-8.79-23.59a.83.83,0,0,0-.77-.54H311.74V100.9a3.56,3.56,0,0,1,3.7-3.8,13.59,13.59,0,0,1,4.13.79c.66.27.87-.26.87-.9V90.6s-1.65-1.18-6.73-1.18c-10.25,0-10.49,9.48-10.49,11v2.26h-3.34a.84.84,0,0,0-.82.85v6.22a.84.84,0,0,0,.82.85h3.34l0,26.45a.85.85,0,0,0,.82.86h7a.85.85,0,0,0,.83-.86V110.58h7.08l10.77,26.7s-1.25,3.45-4.06,3.45a8.31,8.31,0,0,1-4.27-1.35.4.4,0,0,0-.59.18l-2.52,5.61a.86.86,0,0,0,.3,1.07,13.9,13.9,0,0,0,7.84,2.18c7.07,0,9.54-5.23,11-9.07,1.32-3.49,11.59-31,13.4-35.91A.54.54,0,0,0,350.25,102.71Zm9.4,4.32h0a1.87,1.87,0,0,0-.48-1.33,2.18,2.18,0,0,0-1.64-.59H355v5.82h1.24v-1.86h1l1.2,1.86h1.45l-1.38-2.08A1.81,1.81,0,0,0,359.65,107Zm-1.25.07c0,.49-.35.82-.95.82H356.2v-1.67h1.23c.6,0,1,.28,1,.83Zm-1.2-4.45a5.5,5.5,0,1,0,5.3,5.49A5.4,5.4,0,0,0,357.2,102.65Zm0,10.39a4.9,4.9,0,1,1,4.72-4.9A4.81,4.81,0,0,1,357.2,113ZM87.08,64.1c-26.83,0-48.58,22.56-48.58,50.4s21.75,50.4,48.58,50.4,48.58-22.56,48.58-50.4S113.91,64.1,87.08,64.1Zm22.24,72.77a3.19,3.19,0,0,1-2.74,1.61,3.09,3.09,0,0,1-1.64-.48c-19.13-11.94-41.81-5-42-5a3.17,3.17,0,0,1-4-2.21,3.32,3.32,0,0,1,2.12-4.12c1-.33,25.57-7.87,47.18,5.62A3.38,3.38,0,0,1,109.32,136.87Zm6-14a3.75,3.75,0,0,1-3.27,2,3.59,3.59,0,0,1-1.88-.52c-24-14.34-48.24-6-48.48-5.9A3.74,3.74,0,0,1,56.93,116a4,4,0,0,1,2.34-5c1.12-.39,27.73-9.56,54.69,6.53A4,4,0,0,1,115.35,122.92Zm6.81-16a4.62,4.62,0,0,1-4.11,2.58,4.56,4.56,0,0,1-2.16-.55c-27.7-15.1-56.15-6.06-56.43-6a4.62,4.62,0,0,1-5.83-3.14,4.85,4.85,0,0,1,3-6c1.31-.43,32.46-10.32,63.55,6.62A4.91,4.91,0,0,1,122.16,106.88Z"/>
	</symbol>
	<symbol id="provider_apple" viewBox="0 0 400 225">
		<title>Apple Music</title>
		<path d="M90,108.26Q89.86,99.07,98.1,94q-4.65-6.63-13.71-7.46A19.88,19.88,0,0,0,76.15,88a40.65,40.65,0,0,1-6.06,2,18.43,18.43,0,0,1-5.47-1.66,18.76,18.76,0,0,0-6.89-1.66,17.34,17.34,0,0,0-8.92,2.6,18.7,18.7,0,0,0-6.58,6.89,25.39,25.39,0,0,0-3.15,13,41.57,41.57,0,0,0,2.32,13.56A45.56,45.56,0,0,0,46.94,134a37.1,37.1,0,0,0,5.24,6.49c2.15,2.1,4.35,3.11,6.6,3a16.9,16.9,0,0,0,5.69-1.59,16.46,16.46,0,0,1,6.59-1.43,16,16,0,0,1,6.37,1.43,16.54,16.54,0,0,0,6,1.51,10,10,0,0,0,6.44-2.93A18.1,18.1,0,0,0,92.14,138q1.42-1.85,2.74-3.77c.72-1.1,1.41-2.23,2.06-3.39A33.76,33.76,0,0,0,98.77,127c.25-.55.47-1.12.67-1.7s.4-1.16.6-1.76a17,17,0,0,1-5-3.4,16.23,16.23,0,0,1-5-11.9Zm54.31,13.43H144l-15.21-34.1h-12v55h10.41V107h.48l12.72,28.3h7.3L160.38,107h.48v35.63h10.53v-55H159.53ZM80.57,80.39a16.43,16.43,0,0,0,4-10.55v-.75a3.81,3.81,0,0,0-.07-.75,14.69,14.69,0,0,0-5.88,1.73,16.22,16.22,0,0,0-5.13,4,15.41,15.41,0,0,0-4,10.17V85a3.68,3.68,0,0,0,.08.71q6.21.6,11.08-5.27Zm212.48,7.2h11.7v55h-11.7Zm47,8.75c6.94,0,10.61,5.24,10.61,10.88h11.22v-1.17c0-10.64-8.27-19.51-21.91-19.51-14.61,0-23.32,9.43-23.32,25.52v6.21c0,16.08,8.63,25.39,23.28,25.39,14,0,21.95-9,21.95-19v-1.21H350.7c0,5.68-3.59,10.4-10.53,10.4-7.1,0-11.62-5-11.62-15.56V112.1c0-10.57,4.56-15.76,11.54-15.76Zm-123.95,26c0,7.38-4.4,11.44-10.85,11.44s-10.9-4-10.9-11.44V87.59H182.77V124c0,11.73,8.48,19.71,22.52,19.71s22.51-8,22.51-19.71V87.59H216.14v34.75Zm50.37-11.77-8.35-1.86c-4.92-1-7.51-3.14-7.51-6.33,0-4.23,3.51-6.89,9.16-6.89,6.38,0,9.57,3.59,9.85,7.46h10.89c-.12-9.72-8.39-16.49-20.7-16.49-11.66,0-20.86,6-20.86,16.81,0,9.35,6.46,13.7,14.21,15.36l8.27,1.89c5.57,1.25,8.39,3.07,8.39,6.81,0,4.28-3.47,7.18-10,7.18-7,0-10.65-3.63-11-7.7H237.7c.17,7.78,5.41,16.85,21.63,16.85,13.64,0,22.07-6.65,22.07-17.46,0-10-6.82-13.9-14.89-15.63Z"/>
	</symbol>
	<symbol id="provider_pandora" viewBox="0 0 400 225">
		<title>Pandora</title>
		<path d="M227.67,86c.13,3.32,0,6.65,0,10,0,.34,0,.68-.09,1.08-10.56-7.77-23.07-5-29.76,2a22,22,0,0,0-2.49,27.74,21.43,21.43,0,0,0,11.89,8.75c7.37,2.17,14.14.77,20.52-3.86v3.4H236V82.94c0-.78,0-1.56,0-2.34h-5.45C228.31,81.73,227.58,83.59,227.67,86Zm-13.43,42.14a13.68,13.68,0,1,1,13.81-13.72A13.84,13.84,0,0,1,214.24,128.18ZM66.8,92.72c-6.44-1.07-12.29.56-17.69,4.59V93.77c-1.41,0-2.73,0-4,0s-2.71-.07-4.07-.1V148.4h5.2a4.69,4.69,0,0,0,3-5.08c-.14-2.58,0-5.17,0-7.76v-3.73a22.7,22.7,0,0,0,30.18-2.18,22.11,22.11,0,0,0,2.54-27A21.52,21.52,0,0,0,66.8,92.72Zm-4.22,35.46a13.68,13.68,0,1,1,13.86-13.62A13.73,13.73,0,0,1,62.58,128.18ZM376.83,82a30.12,30.12,0,0,0-3-1.44h-3.46c-.31.16-.6.35-.92.48a7.76,7.76,0,1,0,10.1,10,7.9,7.9,0,0,1,.48-.91V86.76C379.35,84.92,378.59,83.12,376.83,82Zm-4.61,13A6.71,6.71,0,1,1,379,88.31,6.73,6.73,0,0,1,372.22,95ZM126.55,97.17a22.56,22.56,0,0,0-30.39,2.48,22.06,22.06,0,0,0-1.28,28.14A21.49,21.49,0,0,0,107.46,136c6.9,1.58,13.23.13,19.1-4.22v3.39h8.16V93.85h-8.17Zm-13.81,31a13.69,13.69,0,1,1,14.11-13.5A13.75,13.75,0,0,1,112.74,128.18ZM352.17,96.81c-2.58-1.17-5.08-2.48-7.71-3.46a18.93,18.93,0,0,0-8.56-.82A21.82,21.82,0,0,0,327.79,95a22.3,22.3,0,0,0-6.68,5.41,22.06,22.06,0,0,0-.73,27.28,21.47,21.47,0,0,0,11.81,8.09c7.21,1.93,13.85.52,20-4v3.44h8.16V93.85h-8.2Zm-13.44,31.37a13.68,13.68,0,1,1,13.72-13.78A13.75,13.75,0,0,1,338.73,128.18Zm-73.5-35.71c-12.85-.6-23.17,8.92-23.43,21.66a21.89,21.89,0,0,0,21.07,22.4c12.95.51,22.93-9,23.34-21.9A22,22,0,0,0,265.23,92.47Zm-1.35,35.22a13.19,13.19,0,1,1,13.36-13.17A13.36,13.36,0,0,1,263.88,127.69Zm-78.49-17.15a22.2,22.2,0,0,0-44,4v20.56h8.92V114.72a13.26,13.26,0,1,1,26.52,0v20.46h8.87c0-.29.05-.46.05-.62,0-7,0-14,0-21A17.46,17.46,0,0,0,185.39,110.54ZM291.78,114v21.21h8.92v-1.45c0-6.61,0-13.22,0-19.83,0-6,3.19-10.2,8.93-11.8,1.65-.46,3.38-.62,5.15-.93V92.38c-1.68.19-3.27.32-4.84.56C298.6,94.68,291.78,102.59,291.78,114Zm83.86-27.89a2.41,2.41,0,0,0-2.22-2.15c-1.34-.12-2.69,0-4.07,0v8.7c.82.28,1.18.08,1.14-.79s0-1.62,0-2.39a1.62,1.62,0,0,1,2.26.82c.33.62.79,1.16,1.13,1.76s1,.87,1.82.56l-2.16-3.22c.31-.16.53-.25.75-.38A2.62,2.62,0,0,0,375.64,86.07ZM373,88.13a7.75,7.75,0,0,1-2.47.06V85c.88,0,1.69-.06,2.49,0a1.41,1.41,0,0,1,1.43,1.64A2.55,2.55,0,0,1,373,88.13Z"/>
	</symbol>
	<symbol id="provider_amazon" viewBox="0 0 400 225">
		<title>Amazon Prime Video</title>
		<path d="M277.54,131a32.75,32.75,0,1,0-32.78-32.75A32.77,32.77,0,0,0,277.54,131Zm-10-46.93,27,13.57-27,13.57Zm-48,53.51a151.94,151.94,0,0,1-58.13,11.88,153.42,153.42,0,0,1-76.22-20.2c-1.89-1.11-3.3.84-1.72,2.26a112.86,112.86,0,0,0,76.17,29c21,0,45.49-6.61,62.35-19C224.76,139.49,222.37,136.41,219.52,137.62Zm-10.64-7c-1.49,1-1.23,2.47.42,2.28,5.43-.65,17.53-2.1,19.69.66s-2.4,14.13-4.43,19.21c-.62,1.53.7,2.15,2.09,1,9-7.56,11.38-23.4,9.53-25.69S218.53,123.84,208.88,130.61ZM243.46,121v-7a3,3,0,0,0-1.56-2.57c-5.16-2.9-11.16-3.75-16.84-3.61L240.35,86c1.42-2,2.22-3.19,2.22-4.14V76.17a1.65,1.65,0,0,0-1.71-1.66H211.35a1.63,1.63,0,0,0-1.67,1.67v6.58a1.64,1.64,0,0,0,1.71,1.66h15.42l-17.72,25.4a8,8,0,0,0-1.09,4.52V121c0,1,1.07,2.07,2.1,1.52a34,34,0,0,1,31.19-.06C242.41,123.07,243.46,122,243.46,121ZM93,123.87h9a1.7,1.7,0,0,0,1.73-1.66V97.8c0-5.33-.25-12.7,6.21-12.7s5.53,7.56,5.53,12.7v24.41a1.69,1.69,0,0,0,1.61,1.66h9a1.7,1.7,0,0,0,1.74-1.66V97.8c0-2.62-.09-6.5.83-8.82A6,6,0,0,1,134,85.2c2.6,0,4.61.87,5.28,4,.42,1.84.25,6.69.25,8.63v24.41a1.69,1.69,0,0,0,1.61,1.66h9a1.69,1.69,0,0,0,1.73-1.66V93.15c0-5,.59-10.57-2.27-14.45a13.28,13.28,0,0,0-22.8,3.49c-2.52-5.81-6-8.52-11.65-8.52s-9.64,2.71-11.83,8.52h-.16v-6a1.71,1.71,0,0,0-1.64-1.55H93.14a1.68,1.68,0,0,0-1.73,1.65v46.06A1.7,1.7,0,0,0,93,123.87ZM339.82,97.41v25a1.71,1.71,0,0,0,1.6,1.45h9a1.71,1.71,0,0,0,1.72-1.45v-29c0-4.46,0-10.67-2.35-14.35-2.52-4-6.46-5.42-10.48-5.42-6.2,0-9.73,3-12.24,9.3h-.17v-7a1.72,1.72,0,0,0-1.6-1.29H317a1.69,1.69,0,0,0-1.72,1.5v46.07a1.69,1.69,0,0,0,1.61,1.66h8.95a1.72,1.72,0,0,0,1.75-1.66V97.41A20.41,20.41,0,0,1,329,88.69,5.87,5.87,0,0,1,334.2,85C340.41,85,339.82,92.37,339.82,97.41ZM186.15,92.74c-5.21.59-12,1-16.89,3.11a15.24,15.24,0,0,0-9.58,14.67c0,9.32,5.88,14,13.44,14,6.39,0,9.88-1.5,14.81-6.52a22,22,0,0,0,5.15,6,1.86,1.86,0,0,0,2.12-.21l0,0c1.79-1.59,5.05-4.42,6.89-6a1.69,1.69,0,0,0,0-2.38c-1.64-2.27-3.39-4.11-3.39-8.32v-14c0-5.92.42-11.36-3.95-15.44-3.44-3.3-9.16-4.47-13.53-4.47-8.55,0-18.08,3.19-20.08,13.74a1.58,1.58,0,0,0,1.34,1.88l8.7.94a1.89,1.89,0,0,0,1.56-1.65c.75-3.64,3.8-5.39,7.22-5.39a6,6,0,0,1,5,2.33c1.26,1.84,1.1,4.37,1.1,6.51Zm-1.69,18.65a7.28,7.28,0,0,1-6.21,4.08c-3.45,0-5.47-2.62-5.47-6.51,0-7.64,6.87-9,13.37-9v1.94C186.15,105.37,186.23,108.28,184.46,111.39Zm-100.06,4c-1.65-2.27-3.39-4.11-3.39-8.32v-14c0-5.92.42-11.36-4-15.44-3.45-3.3-9.16-4.47-13.53-4.47C55,73.22,45.44,76.41,43.44,87a1.59,1.59,0,0,0,1.34,1.88l8.71.94a1.91,1.91,0,0,0,1.56-1.65c.75-3.64,3.79-5.39,7.22-5.39a6,6,0,0,1,5,2.33c1.26,1.84,1.09,4.37,1.09,6.51v1.16c-5.21.59-12,1-16.89,3.11a15.25,15.25,0,0,0-9.57,14.67c0,9.32,5.88,14,13.44,14,6.38,0,9.88-1.5,14.81-6.52a21.8,21.8,0,0,0,5.15,6,1.86,1.86,0,0,0,2.12-.21l0,0c1.79-1.59,5-4.42,6.89-6A1.69,1.69,0,0,0,84.4,115.43Zm-17.68-4a7.28,7.28,0,0,1-6.22,4.08c-3.44,0-5.46-2.62-5.46-6.51,0-7.64,6.86-9,13.36-9v1.94C68.4,105.37,68.49,108.28,66.72,111.39Zm219,36L287.2,143a11.75,11.75,0,0,0-1.34-.08,10.07,10.07,0,0,0-7,3.31h-.18l.66-3h-5.51c-.45,1.67-1,3.76-1.66,5.6l-4.84,14.32h6.34l3.57-10.55a10.29,10.29,0,0,1,.87-1.89,7.9,7.9,0,0,1,6.25-3.43C284.91,147.34,285.33,147.34,285.73,147.38Zm4.52-4.09-6.73,19.92h6.33l6.73-19.92ZM350.8,143a15.24,15.24,0,0,0-14.29,10.6c-2.09,6.17.61,9.9,8.07,9.9a30.18,30.18,0,0,0,7.54-.94l.11-3.11a21.12,21.12,0,0,1-5.39.69c-3.37,0-5.92-1.22-4.47-5.69h13.5a12.66,12.66,0,0,0,1-2.33C358.63,146.76,356.84,143,350.8,143Zm.44,8.34h-7.82c.91-2.33,3.08-5.07,5.8-5.07C351.47,146.23,352.37,148.11,351.24,151.3Zm-59.53-13.21c-.51,1.51.62,2.54,2.46,2.54h.06a4.38,4.38,0,0,0,4.29-2.54c.52-1.56-.57-2.54-2.58-2.54C294.11,135.55,292.24,136.53,291.71,138.09ZM328.07,143a12.48,12.48,0,0,0-4.27.73,13.57,13.57,0,0,0-3.57,2.13h-.11c-.43-1.88-2.23-2.86-5.19-2.86a12.42,12.42,0,0,0-7.66,2.7h-.12l.5-2.37h-5.5c-.48,1.75-.9,3.35-1.66,5.6l-4.84,14.32h6.28l4.25-12.6A9.16,9.16,0,0,1,307,149a5.42,5.42,0,0,1,4.37-2.41c2.84,0,2.49,2.09,1.9,3.85l-4.32,12.76h6.28l4.28-12.68a5.55,5.55,0,0,1,.78-1.6,5.27,5.27,0,0,1,4.28-2.33c2.78,0,2.54,2.13,1.72,4.54l-4.08,12.07h6.28l4.35-12.89C334.46,145.41,332.69,143,328.07,143Zm-59.34-5.36c-1.84-1.56-5.1-2.09-9.3-2.09a52.55,52.55,0,0,0-7.58.53l-9.18,27.17h6.27l3.65-10.8c.58,0,1.12,0,1.77,0a20.82,20.82,0,0,0,10.55-2.86,11.37,11.37,0,0,0,5-6.12C270.74,141.11,270.39,139,268.73,137.6Zm-5.23,6.2c-1.06,3.13-4,5.09-8.18,5.09a8.36,8.36,0,0,1-1.51-.08l3.22-9.53a10.79,10.79,0,0,1,2.26-.21C263.56,139.07,264.37,141.23,263.5,143.8Z"/>
	</symbol>
	<symbol id="provider_netflix" viewBox="0 0 400 225">
		<title>Netflix</title>
		<path d="M73.65,119C68,101.35,62.3,89.67,56.61,71.13H43.93v84.74c4.28-.61,8.86-1.2,13.15-1.76,0-17.71,0-28.6,0-46.31,5.9,17.43,9.52,27.71,15.4,44.28,4.61-.53,9.67-1.18,14.28-1.65q.08-39.65.14-79.3H73.73C73.7,89.21,73.68,100.92,73.65,119ZM123.6,84.26h3.74l9,0c0-3.81-.09-9.29-.09-13.1H99.67l-.15,78.18q18.35-1.68,36.73-2.75c0-3.81,0-9.28,0-13.09-8,.49-15.59,1-23.53,1.54,0-7,0-12.8,0-19.81,5.8-.1,11.93,0,17.86-.11,0-3.83,0-9.33,0-13.16-5.87.11-12.08.12-17.86.23,0-7,0-10.85,0-17.85C116.48,84.26,120,84.26,123.6,84.26Zm21.19,0h1.75c1.77,0,3.54,0,5.31,0s3.53,0,5.3,0h1.36c0,21,0,40.19-.08,61.2,4.31-.16,8.92-.29,13.23-.41,0-20.89,0-40,.05-60.86l13.81,0c0-3.72,0-9.26,0-13H144.81C144.8,75,144.79,80.43,144.79,84.22Zm71,0h4.36c3.55,0,7.1,0,10.68,0,0-3.74,0-9.41,0-13.15H194.09q0,36.8,0,73.59h4.3c2.93,0,5.89,0,8.78,0,0-10.41,0-19.91,0-30.32h2.19l5.18,0h5.23c1.78,0,3.55,0,5.28,0,0-3.73,0-9.28,0-13-1.63,0-3.3,0-5,0l-5.45,0h-7.43V84.26h8.63Zm36.75,48.59c0-21.21.09-40.45.05-61.66h-13.2c0,24.77-.08,49.53,0,74.3,11.74.44,24.07.92,35.8,1.73,0-3.81,0-9.29,0-13.1C267.69,133.68,260,133.16,252.53,132.85ZM286,71.19l.15,76.84c4.3.33,8.76.69,13.05,1.08q0-38.94,0-77.92Zm54.28,39.92c5.58-13.3,11.27-26,17.06-39.91H342.88c-3.57,8.59-6,14.12-9.45,22.3-3.2-8.51-5.34-14-8.53-22.3H310.48c5.28,13,10.11,25.93,15.47,39.68-5.57,13.21-11.24,26.34-16.81,39,4.61.46,9.38,1.13,14,1.64,3.3-8.16,6.31-14.44,9.62-22.82,3.3,8.93,6.3,15.82,9.6,25,4.59.6,10.56,1.46,15.15,2.12C351.93,140.88,345.84,125.28,340.24,111.11Z"/>
	</symbol>
	<symbol id="provider_hulu" viewBox="0 0 400 225">
		<title>Hulu</title>
		<path d="M331,86.3H310.25V121a5.35,5.35,0,0,1-5.43,5.56H292.76a6,6,0,0,1-4-1.56,5.89,5.89,0,0,1-1.57-4V86.3H266.46v36.51c.13,4.84,1,9.06,3,12.45a19.17,19.17,0,0,0,8.2,7.61,28.94,28.94,0,0,0,12.43,2.67h20.14v-.24a22,22,0,0,0,11.22-2.79,18.68,18.68,0,0,0,7-8A26.3,26.3,0,0,0,331,122.8ZM123.39,88.48a27.58,27.58,0,0,0-11.94-2.18H98.06l-5.19.6c-1.21.37-1.81.61-1.81.61V59.46H70.43v86.08H91.06V110.72a5.7,5.7,0,0,1,1.69-3.87,5.64,5.64,0,0,1,4-1.57H108.8a5.81,5.81,0,0,1,3.85,1.57,5.7,5.7,0,0,1,1.69,3.87v34.82H135V108.06c0-5.2-1.09-9.43-3.14-12.69A18.74,18.74,0,0,0,123.39,88.48ZM193.6,121a6.63,6.63,0,0,1-1.57,4,6.48,6.48,0,0,1-4,1.56H176a5.91,5.91,0,0,1-3.85-1.56,6,6,0,0,1-1.69-4V86.3H149.81v36.51a25,25,0,0,0,2.89,12.45,18.54,18.54,0,0,0,8.21,7.61,28.54,28.54,0,0,0,12.42,2.67H193.6v-.24a21.19,21.19,0,0,0,11.09-2.79,19.77,19.77,0,0,0,7.12-8,29.85,29.85,0,0,0,2.54-11.73V86.3H193.6V121ZM230,145.54h20.63V59.46H230Z"/>
	</symbol>
	<symbol id="provider_sling" viewBox="0 0 400 225">
		<title>Sling</title>
		<path d="M223.5,79.14c-19.57,0-29.72,10.81-29.72,32.06V148H207.5V111.35c0-12.26,5.55-18.68,15.85-18.68s16.14,6.42,16.14,18.68V148h13.73V111.2C253.22,89.83,243.22,79.14,223.5,79.14ZM99.26,106.81c-10-2.2-14.71-3.88-14.71-7.9,0-5,4.79-5.26,5.75-5.26h30.54V80.34H89.93c-11.29,0-19.5,7.86-19.5,18.68,0,14.81,14.28,18.07,24.7,20.46,11,2.5,16.1,4.27,16.1,9.67,0,1.79,0,5.48-9.86,5.48H70.58V148h29.67c22.62,0,25.07-13.68,25.07-19.57C125.32,112.41,110.26,109.24,99.26,106.81ZM137.74,148h13.6V52.33h-13.6Zm28.74,0h13.6V80.34h-13.6ZM297.83,79.1c-18.92,0-33.15,15.07-33.15,35s14.23,35.07,33.15,35.07h4.45V135.87h-4.45c-9.35,0-19.3-8.73-19.3-21.74s10-21.7,19.3-21.7c12.24,0,19.56,11,19.56,21.7v25.41c0,16.6-6.09,23.37-21.05,23.37A38.86,38.86,0,0,1,283,160.23l-4.34-1.67-4.31,12.95,4.06,1.48A54,54,0,0,0,297,176.23c10.08,0,19-3.4,25.13-9.6,5.95-6,9-14.25,8.9-23.91V114.13C331,94.17,316.73,79.1,297.83,79.1Z"/>
	</symbol>
	<symbol id="provider_tidal" viewBox="0 0 400 225">
		<title>Tidal</title>
		<path d="M200,99.12,217.15,82,200,64.81,182.85,82ZM165.69,30.5,148.54,47.65l17.15,17.16,17.16-17.16Zm51.46,17.15L200,30.5,182.85,47.65,200,64.81Zm34.31,0L234.31,30.5,217.15,47.65l17.16,17.16ZM188.13,134.6H173.57v37.34h14.56c11.74,0,19.85-8.16,19.85-18.67v-.11C208,142.65,199.87,134.6,188.13,134.6Zm11.26,18.77c0,6.62-4.53,11.15-11.26,11.15h-6.34V142h6.34c6.73,0,11.26,4.64,11.26,11.26Zm48.27,10.19,3.42,8.38h8.58l-16-37.61h-7.58l-16,37.61h8.38l3.41-8.38Zm-7.89-19.36,5,12.11H234.8Zm44.54,20.27V134.6h-8.22v37.34h26.83v-7.47ZM153.57,134.6h-8.22v37.34h8.22Zm-56.49,7.57h11.36v29.77h8.22V142.17H128V134.6H97.08Zm56.51,51.89h3.83v-1.59h-3.83v-1.65H158v-1.59h-6.13v8.13H158v-1.59h-4.42Zm7.79-4.83H159.6v8.13h5.84v-1.63h-4.06Zm-47.72,5h1.8v1.16a2.87,2.87,0,0,1-1.68.48,2.44,2.44,0,0,1-2.47-2.57v0a2.45,2.45,0,0,1,2.34-2.53,2.94,2.94,0,0,1,2.12.83l1.13-1.36a4.47,4.47,0,0,0-3.19-1.12,4.18,4.18,0,0,0-4.27,4.21v0a4.08,4.08,0,0,0,4.28,4.18,5.28,5.28,0,0,0,3.47-1.29v-3.53h-3.53ZM106,197.36h1.79v-8.13H106Zm-3.82-4.91H98.87v-3.22H97.08v8.13h1.79V194.1h3.29v3.26H104v-8.13h-1.79Zm29.06,4.91H133v-3.15h3.88v-1.62H133v-1.73h4.41v-1.63h-6.19Zm7.69,0h1.79v-8.13h-1.79Zm7-8.13h-3.17v8.13h3.17a4.07,4.07,0,0,0,4.32-4.06v0A4.06,4.06,0,0,0,145.91,189.23Zm2.45,4.09a2.32,2.32,0,0,1-2.45,2.43h-1.39v-4.9h1.39a2.34,2.34,0,0,1,2.45,2.45ZM124,192.45H120.7v-3.22h-1.79v8.13h1.79V194.1H124v3.26h1.79v-8.13H124Zm46.11-1.57h2.48v6.48h1.79v-6.48h2.47v-1.65H170.1Zm95.9-1.71-3.49,8.19h1.83l.74-1.82h3.44l.74,1.82h1.87l-3.48-8.19Zm-.28,4.79,1.08-2.64,1.08,2.64Zm-8.51.1H261v-1.59h-3.83v-1.65h4.35v-1.59h-6.13v8.13h6.19v-1.59h-4.41Zm19.24-1.39-2.14-3.44h-1.93v8.13h1.76v-5.27l2.26,3.44h.05l2.29-3.48v5.31h1.77v-8.13h-1.93Zm-109.59,4.69h1.79v-8.13h-1.79Zm132.53-3.13h1.8v1.16a2.87,2.87,0,0,1-1.68.48,2.43,2.43,0,0,1-2.46-2.57v0a2.44,2.44,0,0,1,2.33-2.53,3,3,0,0,1,2.13.83l1.12-1.36a4.45,4.45,0,0,0-3.19-1.12,4.18,4.18,0,0,0-4.26,4.21v0a4.07,4.07,0,0,0,4.27,4.18,5.24,5.24,0,0,0,3.47-1.29v-3.53h-3.53Zm-16.85,3.13h1.79v-8.13h-1.79Zm-43.61-6.48h2.47v6.48h1.79v-6.48h2.47v-1.65h-6.73Zm52.89,3.36-3.81-5h-1.65v8.13h1.77v-5.17l3.94,5.17h1.52v-8.13h-1.77Zm-38-2.3v0c0-1.67-1.15-2.68-3.07-2.68H247v8.13h1.79v-2.6h1.41l1.74,2.6h2.09l-2-2.9A2.53,2.53,0,0,0,253.82,191.94ZM252,192c0,.69-.49,1.15-1.37,1.15h-1.81v-2.33h1.78c.87,0,1.4.39,1.4,1.16Zm-57.93.64-2.14-3.44H190v8.13h1.75v-5.27l2.26,3.44h0l2.29-3.48v5.31h1.78v-8.13h-1.93Zm11.18,1.22c0,1.29-.66,2-1.75,2s-1.75-.69-1.75-2v-4.6H200v4.65c0,2.39,1.33,3.61,3.52,3.61s3.56-1.21,3.56-3.67v-4.59h-1.79Zm-23.85-1.4-1.94-3.26h-2.09l3.13,4.93v3.2h1.79v-3.24l3.12-4.89h-2Zm54.15,0c-1.41-.36-1.75-.53-1.75-1.06v0c0-.39.36-.71,1-.71a3.8,3.8,0,0,1,2.11.81l.93-1.35a4.7,4.7,0,0,0-3-1c-1.66,0-2.84,1-2.84,2.45v0c0,1.61,1.06,2.07,2.69,2.48,1.36.35,1.64.58,1.64,1v0c0,.48-.44.77-1.17.77a3.75,3.75,0,0,1-2.43-1l-1.06,1.27a5.19,5.19,0,0,0,3.45,1.3c1.76,0,3-.91,3-2.52v0C238.13,193.52,237.2,192.92,235.55,192.49Zm-11.49,3.36a2.41,2.41,0,0,1-2.35-2.55v0a2.4,2.4,0,0,1,2.35-2.53,3,3,0,0,1,2.08.92l1.14-1.31a4.37,4.37,0,0,0-7.44,3v0A4.1,4.1,0,0,0,224,197.5a4.18,4.18,0,0,0,3.33-1.45l-1.14-1.15A2.94,2.94,0,0,1,224.06,195.85Zm-7.68,1.51h1.79v-8.13h-1.79Zm-4.22-4.87c-1.4-.36-1.75-.53-1.75-1.06v0c0-.39.36-.71,1-.71a3.83,3.83,0,0,1,2.12.81l.93-1.35a4.74,4.74,0,0,0-3-1c-1.66,0-2.85,1-2.85,2.45v0c0,1.61,1.06,2.07,2.7,2.48,1.36.35,1.63.58,1.63,1v0c0,.48-.44.77-1.17.77a3.78,3.78,0,0,1-2.43-1l-1.05,1.27a5.17,5.17,0,0,0,3.45,1.3c1.75,0,3-.91,3-2.52v0C214.74,193.52,213.81,192.92,212.16,192.49Z"/>
	</symbol>
	<symbol id="provider_wsj" viewBox="0 0 400 225">
		<title>The Wall Street Journal</title>
		<path d="M205,46.75V60.17c0,.68-.33.95-.9.95h-.43v.62h8.47V56.07h-.56v.06c0,3.09-1.13,4.89-3,4.89h-1.31v-7.5h.36c1.08,0,1.55,1.08,1.55,3.17v0h.56V49.56h-.56v.07c0,2.13-.5,3.14-1.55,3.14h-.36V45.9h1.39c1.88,0,2.91,1.53,2.91,4.91v.06h.56v-5.7h-8.49v.62h.45C204.71,45.79,205,46.06,205,46.75Zm-6.38,14.37h-.58c-.56,0-.83-.27-.83-.95V53.64h.6c.94,0,1.56.44,1.64,2.07l.15,3.09c.09,2.06.67,3.07,2,3.07s1.89-1,1.89-2.39v-.84h-.68v.6c0,1.07-.09,1.38-.5,1.38s-.42-.21-.46-.93l-.19-3.62A2.94,2.94,0,0,0,199,53.33v0a4,4,0,0,0,3.6-4.1c0-2.61-1.72-4-4.47-4h-4.55v.62h.48c.56,0,.91.27.91,1V60.17c0,.68-.35.95-.91.95h-.48v.62h5.07ZM197.25,45.9h.54c1.4,0,2.43.74,2.43,3.33s-.88,3.65-2.35,3.65h-.62Zm25.28,5c0-2.82,1-5,2.2-5h.44V60.17a.83.83,0,0,1-.92.95h-.48v.62h5.11v-.62h-.52c-.56,0-.91-.27-.91-.95V45.9h.5c1.19,0,2.2,2.28,2.2,5v.06h.56V45.17H222v5.74h.56Zm23.37-5.8c-2.83,0-4.32,3.66-4.32,8.37s1.55,8.45,4.32,8.45,4.39-3.75,4.39-8.45S248.71,45.05,245.9,45.05Zm1.81,12.3c0,2.68-.59,3.77-1.81,3.77s-1.76-1-1.76-3.79V49.56c0-2.94.59-3.77,1.76-3.77s1.81.87,1.81,3.73Zm-33.62-10.6V60.17c0,.68-.33.95-.89.95h-.44v.62h8.48V56.07h-.56v.06c0,3.09-1.14,4.89-3,4.89h-1.31v-7.5h.35c1.08,0,1.56,1.08,1.56,3.17v0h.56V49.56h-.56v.07c0,2.13-.5,3.14-1.56,3.14h-.35V45.9h1.39c1.88,0,2.91,1.53,2.91,4.91v.06h.56v-5.7h-8.5v.62h.46C213.76,45.79,214.09,46.06,214.09,46.75Zm59.36,14.37H273c-.52,0-.93-.39-.93-1.2V48.75h0l5.19,13.06h.81V47c0-.81.42-1.2.94-1.2h.43v-.62H276v.62h.44c.52,0,.93.39.93,1.2v8.85h0l-4.21-10.67h-3.2v.62h.6c.59,0,.81.46.81,1V59.92c0,.81-.41,1.2-.93,1.2h-.48v.62h3.51ZM251.6,46.75V58a3.64,3.64,0,0,0,4,3.83c2.38,0,3.12-1.64,3.12-3.83V47c0-.76.31-1.2.83-1.2h.85c.56,0,.92.27.92,1V60.17a.83.83,0,0,1-.92.95h-.47v.62H265v-.62h-.58c-.56,0-.83-.27-.83-.95V53.64h.6c.94,0,1.57.43,1.64,2.07L266,58.8c.1,2.06.67,3.07,2,3.07s1.89-1,1.89-2.39v-.84h-.69v.6c0,1.07-.08,1.38-.5,1.38s-.42-.2-.45-.93l-.19-3.62a2.94,2.94,0,0,0-2.72-2.74v0a4,4,0,0,0,3.59-4.1c0-2.61-1.72-4-4.47-4h-7.81v.62h.48c.52,0,.81.44.81,1.2V58.18c0,2-.78,2.94-2.06,2.94s-2-1.07-2-2.94V46.75c0-.69.33-1,.89-1h.32v-.62h-4.86v.62h.45C251.26,45.79,251.6,46.06,251.6,46.75Zm12-.85h.54c1.41,0,2.43.74,2.43,3.33s-.88,3.65-2.35,3.65h-.62Zm-27,16c2.08,0,3.72-1,3.72-3.57V46.75c0-.69.35-1,.91-1h.42v-.62h-5v.62h.44c.56,0,.89.27.89,1v12c0,1.78-.37,2.38-1.45,2.38a1.83,1.83,0,0,1-1.79-1.84,1.42,1.42,0,0,0,1.35-1.53A1.12,1.12,0,0,0,235,56.5c-.63,0-1.41.54-1.41,1.8C233.61,60.65,235.1,61.87,236.6,61.87Zm42.06-.75v.62h3.56v-.62h-.09c-.86,0-1.06-.19-1.06-.7a3.53,3.53,0,0,1,.06-.5l.4-2.2h2.82l.4,2.2a3.37,3.37,0,0,1,.06.5c0,.47-.26.7-1.12.7h-.13v.62h12.7V56.05h-.57v.06c0,2.38-.58,4.91-2.82,4.91h-1.23V46.73a.82.82,0,0,1,.92-.94H293v-.62H288v.62h.46c.56,0,.91.25.91.94V60.19c0,.68-.35.93-.91.93h-.34c-.39,0-.85-.3-1-1.2l-3-14.91h-1.05l-2.89,15c-.19,1-.61,1.14-1.33,1.14Zm4.24-11.49h0L284.19,57h-2.54Zm-98,1.22c0-2.82,1-5,2.2-5h.44V60.17a.83.83,0,0,1-.92.95h-.48v.62h5.11v-.62h-.52c-.56,0-.91-.27-.91-.95V45.9h.5c1.19,0,2.2,2.28,2.2,5v.06h.56V45.17h-8.74v5.74h.56ZM114.71,61.12h-.44c-.56,0-.91-.27-.91-.95V53.66H117v6.51c0,.68-.35.95-.91.95h-.42v.62h5v-.62h-.44c-.56,0-.91-.27-.91-.95V46.75c0-.69.35-1,.91-1h.44v-.62h-5v.62h.42c.56,0,.91.27.91,1v6h-3.63v-6c0-.69.35-1,.91-1h.44v-.62h-5v.62h.44c.56,0,.91.27.91,1V60.17c0,.68-.35.95-.91.95h-.44v.62h5Zm20.18-14.19,3,14.94h.93l1.94-9.53h0l1.89,9.53h.93l3-14.57c.29-1.36.7-1.51,1.5-1.51h.17v-.62h-3.76v.62h.12c.88,0,1.1.29,1.1,1a1.84,1.84,0,0,1,0,.39l-1.79,9.67h0L142,47.16a3.61,3.61,0,0,1-.06-.52c0-.57.17-.85,1-.85H143v-.62h-4.45v.62h.11c.67,0,.86.31,1,1.14l.64,3.36-1.23,6.65h0l-1.89-10.11a2.42,2.42,0,0,1,0-.37c0-.44.16-.67.81-.67H138v-.62h-4.5v.62h.06C134.42,45.79,134.7,46,134.89,46.93Zm-33.62,3.92c0-2.82,1-5,2.2-5h.44V60.17a.83.83,0,0,1-.92.95h-.47v.62h5.11v-.62h-.52a.82.82,0,0,1-.92-.95V45.9h.5c1.19,0,2.2,2.27,2.2,5v.06h.56V45.17h-8.74v5.74h.56Zm21.25-4.1V60.17c0,.68-.33.95-.89.95h-.44v.62h8.48V56.07h-.57v.06c0,3.09-1.13,4.89-3,4.89H124.8v-7.5h.36c1.08,0,1.55,1.08,1.55,3.17v0h.57V49.56h-.57v.07c0,2.13-.49,3.14-1.55,3.14h-.36V45.9h1.4c1.88,0,2.9,1.53,2.9,4.91v.06h.57v-5.7h-8.5v.62h.46C122.19,45.79,122.52,46.06,122.52,46.75Zm57,7.14c1.73,1.31,2.93,2.69,2.93,4.6,0,1.75-.68,2.63-2.23,2.63-1,0-3-.91-3-4.91v-.16h-.56v5.69h.44l.39-.87a4.46,4.46,0,0,0,2.93,1c2.08,0,3.87-1.21,3.87-4.15s-1.47-4.55-3.37-6c-1.72-1.33-2.64-2.22-2.64-3.77,0-1.31.62-2.14,1.79-2.14,1.85,0,2.78,1.87,2.78,5v.17h.56V45.21H183l-.42.81a3.65,3.65,0,0,0-2.66-1c-1.84,0-3.38,1.29-3.38,3.79S178,52.71,179.55,53.89Zm-33.67,7.23h-.19v.62h3.55v-.62h-.08c-.86,0-1.06-.19-1.06-.7a3.53,3.53,0,0,1,.06-.5l.4-2.2h2.82l.4,2.2a3.37,3.37,0,0,1,.06.5c0,.47-.26.7-1.12.7h-.13v.62h12.69V56h-.56v.07c0,2.4-.58,4.93-2.82,4.93h-1.23V46.72a.81.81,0,0,1,.92-.93H160v-.62H155v.62h.46c.56,0,.91.25.91.93V60.19c0,.68-.35.93-.91.93h-.34c-.39,0-.86-.3-1-1.2l-3-14.91h-1.06l-2.88,15C147,61,146.6,61.12,145.88,61.12Zm4.05-11.49h0L151.22,57h-2.54Zm22,6.42h-.56v.06c0,2.36-.59,4.91-2.83,4.91h-1.22V46.72c0-.68.35-.93.91-.93h.39v-.62H163.7v.62h.46c.56,0,.91.25.91.93V60.19c0,.68-.35.93-.91.93h-.58v.62H172Zm126.24,5.82a1.09,1.09,0,0,0,.95-1.14,1,1,0,1,0-1.91,0A1.09,1.09,0,0,0,298.19,61.87Zm-103.85,16V74H170.47v4h.79c5.59,0,7,1.84,7,6a14.31,14.31,0,0,1-.25,2.51L166.64,147.9h-.27l-12-61.31a18.44,18.44,0,0,1-.4-3.3c0-3.62,1.07-5.39,6.34-5.39h.52V74H132.6v4h.66c4.25,0,5.45,2,6.47,7.24l4.08,21.31L136,148.68h-.26l-12-64.2a14.15,14.15,0,0,1-.13-2.37c0-2.76,1-4.21,5.15-4.21h.52V74H100.67v4h.4c5.35,0,7.11,1.19,8.31,7.24L128.25,180h5.93l12.28-60.51h.13l12,60.51h5.94l19.26-92.48c1.81-8.67,4.43-9.61,9.5-9.61Zm26.18,37.51c-10.9-8.43-16.76-14.06-16.76-24,0-8.33,3.92-13.56,11.35-13.56,11.74,0,17.68,11.84,17.68,31.58v1h3.57V74.22h-2.65l-2.64,5.13c-2.6-2.23-7.14-6.18-16.88-6.18-11.71,0-21.51,8.23-21.51,24.08,0,15.38,9.18,24.58,19.13,32.1,11,8.28,18.6,17.1,18.6,29.21,0,11.09-4.33,16.7-14.12,16.7-6.44,0-19.26-5.78-19.26-31.18V143h-3.56v36.18h2.77l2.51-5.52c4.62,3.15,9,6.3,18.6,6.3,13.23,0,24.54-7.68,24.54-26.31C241.89,134.56,232.59,124.74,220.52,115.41ZM268,74v4h2.77c3.58,0,5.68,1.71,5.68,6v76.18c0,11.35-2.36,15.13-9.24,15.13-7.16,0-11.34-6.3-11.34-11.7,4.84-.72,8.57-3.39,8.57-9.74,0-5-3-7.89-7.13-7.89-4,0-9,3.44-9,11.44,0,14.9,9.51,22.62,19,22.62,13.25,0,23.62-6.14,23.62-22.62V84c0-4.34,2.23-6,5.81-6h2.64V74Z"/>
	</symbol>
	<symbol id="provider_nytimes" viewBox="0 0 400 225">
		<title>The New York Times</title>
		<path d="M58.4,89.85a4.63,4.63,0,0,0-1.87.13c1.1.21,2.4.18,3.08,1.35a1.5,1.5,0,0,1-.53,2,3.93,3.93,0,0,1-3.06.11c-3.18-.77-6.76-2.27-9.42-2.65A6.79,6.79,0,0,0,41.83,92a5.41,5.41,0,0,0-2.27,4.84,4.09,4.09,0,0,0,1.89,3.28,2.37,2.37,0,0,0,.87.37,2.78,2.78,0,0,1-.77-1.11A2.48,2.48,0,0,1,42.31,97a3.15,3.15,0,0,1,2.52-.48c.85.12,6.25,1.64,7.87,2a39.27,39.27,0,0,0,4.53,1v5.88l-2.84,2.31,2.84,2.3v8.18a8.63,8.63,0,0,1-5.82,1.19,9.46,9.46,0,0,1-5.5-3.13l7.28-3.65V99.93l-9,4a9.83,9.83,0,0,1,3.33-4.46c.52-.34.95-.67,1.32-.92a4.37,4.37,0,0,0-1.59.43c-4.65,1.74-8.68,6.41-8.79,11.82a13.35,13.35,0,0,0,2,7.53,12.29,12.29,0,0,0,8.08,5.58,11.54,11.54,0,0,0,8.66-1.5,10.33,10.33,0,0,0,4.28-4.83,10.79,10.79,0,0,0,1.05-5.54c-.17.38-.24.58-.24.58A13.08,13.08,0,0,1,57.57,118v-8l2.85-2.3-2.85-2.31V99.47a5.69,5.69,0,0,0,3.09-.86,4.93,4.93,0,0,0,1.13-7.3A6.36,6.36,0,0,0,58.4,89.85ZM43.23,109.52a12.15,12.15,0,0,1,.77-5.13l3.67-1.64v12.19l-2,1A12.74,12.74,0,0,1,43.23,109.52Zm50.21,10.84-4-3.76v-1.41l8.06-5.93-4.08-7.1s-2.76,1.68-4.62,2.79-4.36,2.32-4.36,2.32V118.9l-1.66,1.33.22.26,1.62-1.31,5.09,4.6,8.84-7-.21-.26Zm-4-15.59,4.1,7-4.1,3ZM80,106.38,76,102l-5.1,4.38V91.48l-6.36,4.91A1.65,1.65,0,0,1,65.73,98v20.81l-2.69,2,.18.28,1.3-1,3.63,3.37,5.7-4.54-.21-.26-1.34,1.07-1.42-1.41,0-11.6,1.66-1.41L75,108.42s0,7.51,0,10c0,2.66,0,6-1.42,7.58a5.39,5.39,0,0,1-3.38,2.15,8.16,8.16,0,0,0,5.68-.79A7.84,7.84,0,0,0,80,120.11l.12-4.22v-9.22l1.75-1.33-.2-.26Zm45.51-7.81a6.14,6.14,0,0,0,3.63-1.5c2.63-2.7,1.56-5.65,1.27-5.94a2.84,2.84,0,0,1-2.81,2.59,4.82,4.82,0,0,1-3.49-1.59l-5.26,6,.25.23,1.51-1.72a6.43,6.43,0,0,0,4.57,1.94v14.54L115,94.69a5.25,5.25,0,0,0-4.51-2.87A4.73,4.73,0,0,0,106,95.94c-.25,2.16,0,2.65,0,2.65s.37-2.4,1.86-2.38,2,1.25,2.57,2.17v5.34c-1.38.09-5,.25-5.19,4a4.42,4.42,0,0,0,1.6,3.34,3.41,3.41,0,0,0,1.73.63,1.64,1.64,0,0,1-.81-1.85c.31-1.09,2.59-1.27,2.67-.81v7.53c-1.1,0-4.61.1-6.19,3.11a5.06,5.06,0,0,0,.12,5.29,5.27,5.27,0,0,0,5.49,2.16c-2.28-.26-3.23-1.64-3.21-2.73a2.48,2.48,0,0,1,2-2.25,4.5,4.5,0,0,1,4,1.86l5.27-5.82-.26-.22-1.41,1.58a9.26,9.26,0,0,0-5.51-3V98.84l13.67,24.9s.14.29.7.29.36-.4.36-.4Zm13.26,21.79-4-3.76v-1.41l8.07-5.93-4.09-7.1s-2.76,1.68-4.62,2.79-4.36,2.32-4.36,2.32V118.9l-1.66,1.33.22.26,1.62-1.31,5.09,4.6,8.84-7-.21-.26Zm-4-15.59,4.1,7-4.1,3Zm36.89.63-4-3.34-4.32,4,1.68,1.57v13.19l-.66.42-3.68-3v-11l1.5-1.63-3.94-3.49-4.31,3.81,1.68,1.67v12.36l-.82.64-3.1-2.48V106.64c-.08-3.27-4.29-3.49-5-6C146.21,99.09,148,98,148,98a5.23,5.23,0,0,0-2.1.51c-.95.49-2.82,2-2.91,3.89-.21,4.39,3.68,3.36,3.58,7.51V120l-1.93,1.41.19.28,1.91-1.39,4.33,3.61,4.71-3.74,4.75,3.76,9.29-5.73V107.41l3.63-3.19-.22-.25Zm169.45,15-4-3.76v-1.41l8.07-5.93-4.09-7.1s-2.76,1.68-4.62,2.79-4.36,2.32-4.36,2.32V118.9l-1.66,1.33.22.26,1.62-1.31,5.09,4.6,8.84-7-.21-.26Zm-4-15.59,4.1,7-4.1,3Zm-8.65,14.89-2-2.22V106.56l1.93-1.47-.2-.26-1.94,1.47-3.66-4.1-5.23,4.13-3.66-4-5.05,4-3.7-3.94L299.51,107l.21.25,1.67-1.44,2.47,2.8v9.61l-1.2,1.1,3.85,4.35,3.95-3.89-1.62-1.69V106.5l1-.78,2.74,3.19v9.58l-1,1,3.62,4.08,3.88-3.88-1.42-1.49,0-11.67,1.05-.85,2.85,3.13v9.53l-.94.94,4,4.37,5.38-5-.23-.24Zm-28.75.5-2.12-2.44V107l1.79-1.55-.22-.25-1.69,1.46-3.74-4.35-5.09,4.44.22.25,1.41-1.22,2.2,2.61v11l-1.55,1.36.21.25,1.63-1.39,3.55,4.1,5.13-4.58-.22-.25ZM297,97.58,293.9,94.1,290,97.63l3.12,3.47Zm-8.38,15.07A13.08,13.08,0,0,1,284,118v-8l2.86-2.3L284,105.35V99.47a5.69,5.69,0,0,0,3.09-.86,4.93,4.93,0,0,0,1.13-7.3,6.36,6.36,0,0,0-3.39-1.46A4.63,4.63,0,0,0,283,90c1.1.21,2.4.18,3.08,1.35a1.5,1.5,0,0,1-.53,2,3.93,3.93,0,0,1-3.06.11c-3.18-.77-6.76-2.27-9.41-2.65A6.8,6.8,0,0,0,268.28,92,5.43,5.43,0,0,0,266,96.88a4.09,4.09,0,0,0,1.89,3.28,2.37,2.37,0,0,0,.87.37,2.78,2.78,0,0,1-.77-1.11,2.48,2.48,0,0,1,.76-2.47,3.15,3.15,0,0,1,2.52-.48c.85.12,6.25,1.64,7.87,2a39.27,39.27,0,0,0,4.53,1v5.88l-2.84,2.31,2.84,2.3v8.18a8.61,8.61,0,0,1-5.81,1.19,9.45,9.45,0,0,1-5.51-3.13l7.28-3.65V99.93l-9,4a9.83,9.83,0,0,1,3.33-4.46c.52-.34.95-.67,1.32-.92a4.37,4.37,0,0,0-1.59.43c-4.65,1.74-8.68,6.41-8.79,11.82a13.35,13.35,0,0,0,1.95,7.53,12.29,12.29,0,0,0,8.08,5.58,11.54,11.54,0,0,0,8.66-1.5,10.33,10.33,0,0,0,4.28-4.83,10.79,10.79,0,0,0,1-5.54C288.73,112.45,288.66,112.65,288.66,112.65Zm-19-3.13a12.15,12.15,0,0,1,.77-5.13l3.67-1.64v12.19l-2,1A12.65,12.65,0,0,1,269.68,109.52Zm88.43-.69c4.26-4.91,3.15-7.1,2.74-7.84a2.16,2.16,0,0,1-2.24,2.57c-1.55.14-2.91-1.58-2.91-1.58s-1.88,1.24-3.71,2.39-4.18,2.31-4.18,2.31v5.56l3.19,2.91c-2.7,2.74-4.49,4.48-3.89,7a3.82,3.82,0,0,0,3.74,3.08c-1.75-.65-2.32-2.1-1.07-3,1.84-1.27,4,1.38,4,1.38a70.24,70.24,0,0,1,7.83-4.87v-7.21Zm-5.59-4.42a6.11,6.11,0,0,0,3.21,2.78c2.53.77,4.4-1.77,4.4-1.77-1.51,3.1-5.69,6.44-5.69,6.44l-1.92-1.68Zm4.37,16.75s-1.05-3.19-4.06-3.81-5,2.37-5,2.37c.51-2,4.62-5.4,6.92-7.72l2.11,1.83Zm-136-14.2-5.63-4.89s-2.11,1.23-4,2.29c-2.11,1.19-4.61,2.32-4.61,2.32h0V119l-1.48,1.28.23.26,1.4-1.22L212,123.8s2.16-1.34,4.17-2.47,4.9-2.67,4.9-2.67V107.19l1.52-1.41-.23-.25Zm-4.75,14.16-4.47-4.05V104.59l4.47,4.14Zm22.75-18.88a4.24,4.24,0,0,1-1.13.87,2.44,2.44,0,0,1-2.2-.13,5,5,0,0,1-.9-.62l-3.36,3.44-3-3.62L222.85,107l.22.24,1.53-1.35,1.78,2.36,0,10.66L224,121l.25.26,1.52-1.43,4.24,3.85,5.56-4.64-.2-.26-1.78,1.46-2.13-1.88V106.06c2,2.44,3.92,1.82,4.57,1.51A5.43,5.43,0,0,0,238.84,102.24Zm18.54,17.52-8.64-13,.41-.62a6.11,6.11,0,0,0,4.3,1.36c2.53-.42,3.76-3.16,4.08-5.58,0,0-1.69,1.87-3.63,1.37a4.78,4.78,0,0,1-2.25-1.35l-6.22,9,8,12.73,5.92-5.17-.22-.26Zm-10.36.13L245.23,118h0V91l-6.78,4.77c1-.09,1.84,1.11,1.84,3.07v20.19l-2.58,2.25.23.25,1.49-1.3,3.7,3.47,5.46-4.77-.21-.25Zm-56.88,2.89c3.44.5,7.31,2.69,10.51.79,1.44-.89,1.69-2.44,1.78-4V96.28l1.95-1.67-.21-.26L202.31,96l-4-3.55-5.44,4.39V92.72h-.33V123s-.76-.21-1.56-.38-1.69-.27-1.69-.27V97.23a4.28,4.28,0,0,0-3.41-4.52,5,5,0,0,0-5.1,1.66A4.56,4.56,0,0,0,179.52,98s.41-2.43,2.14-2.39c1.19,0,1.93,1,1.94,2.86v7.09c-1.71.19-3.06.46-4.19,2a3.79,3.79,0,0,0,.19,4.53,2.7,2.7,0,0,0,2.27,1,1.42,1.42,0,0,1-.82-1.95c.43-.88,2.44-1,2.54-.53v12s-3.76,1.28-3.85,4.53a5.55,5.55,0,0,0,3,5.33c3.57,1.49,8.88-.66,13.32-1.17,2-.22,2.66,0,2.94,1,.54,1.83-1.36,2.93-1.36,2.93s3.88-.54,4.73-3.62c.5-1.64.51-4-2.73-5.53-3.56-1.66-13.92,2.51-16.25,1a2.18,2.18,0,0,1-.85-2.74C183.57,121.91,187.58,122.4,190.14,122.78Zm2.73-25.55,1.26-1,2.62,2.29v7.4a2.69,2.69,0,0,1-1.93.94,2.76,2.76,0,0,1-1.95-1Zm0,9.21a2.84,2.84,0,0,0,1.95.86,2.78,2.78,0,0,0,1.93-.85v3.64a2.67,2.67,0,0,0-3.88,0Zm0,4.25a2.75,2.75,0,0,1,1.95-1,2.68,2.68,0,0,1,1.93,1V120a3.17,3.17,0,0,1-1.15,2.54,3.35,3.35,0,0,1-2.73.52Z"/>
	</symbol>
	<symbol id="provider_usatoday" viewBox="0 0 400 225">
		<title>USA Today</title>
		<path d="M124.09,57.91a54.59,54.59,0,1,0,54.59,54.59A54.59,54.59,0,0,0,124.09,57.91Zm88.43,4.8h-7.84V78.58c0,3.93-.28,8.2-5.32,8.2S194,82.51,194,78.58V62.71H186.2V79.66c0,3.88.16,7.73,3.16,10.64,2.52,2.48,6.48,3.36,10,3.36s7.48-.87,10-3.36c3-2.91,3.16-6.76,3.16-10.64ZM188.16,105h6.48v23.52h7.84V105H209V98.31H188.16Zm38.78-7.64c-8.67,0-16.67,6.4-16.67,15.52,0,9.76,7,16.64,16.67,16.64s16.68-6.88,16.68-16.64C243.62,103.71,235.62,97.31,226.94,97.31Zm0,24.56c-4.68,0-8.51-3.8-8.51-9,0-4.16,3.83-8,8.51-8s8.52,3.8,8.52,8A8.64,8.64,0,0,1,226.94,121.87ZM226.42,87a10.75,10.75,0,0,1-7-3.12l-3.36,6.32a18.61,18.61,0,0,0,10.6,3.44,13.28,13.28,0,0,0,8.57-2.84c2.39-2,3.11-5.12,3.11-8.12,0-4.88-3.24-7-7.44-8.24l-2-.6c-1.36-.44-3.48-1.12-3.48-2.88s1.92-2.52,3.36-2.52a8.23,8.23,0,0,1,5.2,2l3.12-6.08a20.63,20.63,0,0,0-9.44-2.48c-6,0-10.4,4-10.4,10.12,0,5.84,3.24,7.12,8.16,8.52,1.68.48,4.76,1.24,4.76,3.44S228.26,87,226.42,87Zm23.35.6h10.8l2,5.24h8.35L259.53,62.71H251l-11.6,30.15h8.32Zm5.4-15.6h.08l3.2,9.6h-6.52Zm3.2,26.29H247.25v30.16h11.12a15.08,15.08,0,1,0,0-30.16Zm-1.52,23.52h-1.76V105h1.84c5,0,8.6,3,8.6,8.44C265.53,119.27,261.53,121.83,256.85,121.83Zm29.34-23.52-11.6,30.16h8.32l2.08-5.24h10.8l2,5.24h8.36L294.75,98.31Zm1,18.92,3.23-9.6h.09l3.19,9.6Zm33.95-18.92-5.65,8.2-5.64-8.2h-9.4L311.54,114v14.48h7.84V114L330.5,98.31Z" fill-rule="evenodd"/>
	</symbol>
	<symbol id="provider_latimes" viewBox="0 0 400 225">
		<title>Los Angeles Times</title>
		<path d="M333.2,122.31a1.85,1.85,0,0,1-1.14-.66l-1-.92V108.38A1.25,1.25,0,0,1,332,107v-.22a86,86,0,0,1-7.45-5.61l-5.3,4.64a65.34,65.34,0,0,1-6-4.64l-4.46,3.9-4.16-3.9a52.46,52.46,0,0,1-5.22,4.47l.49.61a2,2,0,0,1,1.31-.65,1.52,1.52,0,0,1,.88.39l1.22,1v13.93c0,.79-.22,1.22-.74,1.36v.26l4.73,4.2c1.51-1.43,3.64-3.32,5.16-4.51l-.48-.52a1.47,1.47,0,0,1-2.36,0l-1.1-1V106.72l1.54-1.31c1,1,3.41,3,4.55,3.89V121c0,.73-.26,1-.74,1.22v.22l4.73,4.29a43.77,43.77,0,0,1,5.16-4.51l-.48-.52a1.93,1.93,0,0,1-1.36.61,1.42,1.42,0,0,1-.92-.48l-1.18-1v-14l1.53-1.35c1.23,1.12,3.46,3.06,4.56,3.85v11.52c0,.69-.13,1.27-.75,1.44v.26l4.73,4.25a59.15,59.15,0,0,1,5.13-4.51l-.44-.57A2,2,0,0,1,333.2,122.31ZM291.16,97a1.59,1.59,0,0,1,1,.53,3.83,3.83,0,0,0,2.49,1.14c1.08,0,2.22-.56,3.64-1.84l1.75-1.58-.48-.52a1.56,1.56,0,0,1-2.32.17l-2.63-2.32L289.41,97l.48.53A1.77,1.77,0,0,1,291.16,97Zm8.23,25.36a1.64,1.64,0,0,1-1.05-.44l-1.22-1.09V106.72a1.25,1.25,0,0,1,.87-1.27v-.22l-4.73-4.07a45.57,45.57,0,0,1-5.21,4.51l.48.57a2,2,0,0,1,1.36-.61,1.33,1.33,0,0,1,.92.43l1.1.88V121a1.14,1.14,0,0,1-.75,1.23v.26l4.77,4.25c1.29-1.27,3.84-3.47,5.17-4.56l-.48-.52A1.72,1.72,0,0,1,299.39,122.31Zm-91.57,0a1.56,1.56,0,0,1-1-.4l-1.27-1.13V98.44a1.61,1.61,0,0,1,.88-1.53v-.17l-4.73-4.08a50.65,50.65,0,0,1-5.26,4.6l.53.57a1.91,1.91,0,0,1,1.31-.74,1.5,1.5,0,0,1,.79.39l1.27,1v22.42c0,.74-.28,1.22-.7,1.36v.26l4.73,4.3a59.83,59.83,0,0,1,5.17-4.56l-.48-.52A1.94,1.94,0,0,1,207.82,122.31Zm-50.09-.66c-.88.83-1.72.72-2,.48l-1.49-1.35v-12.7a1.06,1.06,0,0,1,.87-1v-.22c-2-1.3-5.88-4.3-7.44-5.65l-4.47,3.9-4.16-3.9a54.29,54.29,0,0,1-5.21,4.47l.53.57a2,2,0,0,1,1.35-.61c.27,0,.46.18.75.39l1.27.92v14a1.27,1.27,0,0,1-.75,1.32v.26l4.73,4.2a57.7,57.7,0,0,1,5.17-4.51l-.44-.48a1.56,1.56,0,0,1-2.1.26l-1.4-1.22V106.72l1.53-1.31c1.16,1.09,3.38,3,4.56,3.89v11.39c0,1-.3,1.42-.75,1.58v.26l4.73,4.2a49,49,0,0,1,5.17-4.51ZM370.25,114v-.26l-6.13-3.11L362.76,112l-3.19-1.54v-5.73l.21-.14a5.63,5.63,0,0,0,4.69,1.89,5,5,0,0,0,5.21-4.64c0-.79-.33-1.1-.74-1.1a.46.46,0,0,0-.49.53c0,.21.22.29.22.57,0,.49-.17.91-1.57.91a5.94,5.94,0,0,1-3.9-1.57,52.89,52.89,0,0,1-9.46,5.69v.31a1.22,1.22,0,0,1,.57,1v3.89c0,.5-.15.85-.57,1v.27L359,116l-4.07,4.51c-2.39,2.64-3.15,4.36-3.15,5.65,0,.83.45,1.31.92,1.31a.66.66,0,0,0,.65-.61c0-.6-.61-.55-.61-1,0-.67.61-1.36,2.58-1.36a8.59,8.59,0,0,1,5.26,2.23,47.84,47.84,0,0,1,9.72-6.3v-.27a.88.88,0,0,1-.53-.92v-4.42A.88.88,0,0,1,370.25,114Zm-5.78,8.71-.09,0a6.9,6.9,0,0,0-4.6-2,9.85,9.85,0,0,0-4.59.83l-.09,0,6.35-6.74,3,1.4Zm-13.27-4.07c-.78,0-1.05.74-1.18,1.49l-2.59,2.45a44.6,44.6,0,0,0-5.34-2.63v-4l10.21-6.44c-1.71-2-4.34-5.61-6.14-8.28a114.08,114.08,0,0,1-10,5.61v.26a1.09,1.09,0,0,1,.7,1.14v12.61a1.16,1.16,0,0,1-.66,1.14v.26a81.83,81.83,0,0,1,8.54,4.47l6.66-6.61a1.26,1.26,0,0,0,.39-.84A.58.58,0,0,0,351.2,118.63Zm-9.11-14.14.09,0c1.34,2,3.76,5.26,5.17,7l-5.26,3.37Zm-54.52,10.64c-.41,0-.48.35-.48.65s.22.43.22.66a1.12,1.12,0,0,1-.09.39,10.48,10.48,0,0,1-3.55,4.34V99.23c2.85-.44,5.17-2.1,5.17-5.56,0-.42-.09-1.68-.13-1.88l-.57-.22c-.3,1.53-.9,3-4.2,3-5,0-9.12-2.67-15.55-2.67s-8.71,6.67-8.8,9.11l.52.26c.42-1.73,2-4.12,7.05-4.12a47.68,47.68,0,0,1,7.49.83c-6,1.35-15,5.14-15,15.9a13.69,13.69,0,0,0,14,13.84c10.73,0,14.54-6.71,14.54-12A.61.61,0,0,0,287.57,115.13ZM265.19,112c0-7.79,6.15-12.5,11.48-13.49l.87.17c-4.28,1.89-6.3,4.65-6.3,7.75,0,4.14,2.93,6.62,2.93,11.17a5.59,5.59,0,0,1-2.41,4.82A11,11,0,0,1,265.19,112Zm17.65,9.76a11.72,11.72,0,0,1-5.6,1.75,13.38,13.38,0,0,1-4.65-.74c2.64-1.3,5.87-4.12,5.87-8,0-4.9-2.71-6-2.71-10.86a5.36,5.36,0,0,1,3-5,18,18,0,0,0,3.28.44c.26,0,.53,0,.79,0ZM236.42,112l-3.2-1.54v-5.73l.22-.14a5.64,5.64,0,0,0,4.69,1.89,5.07,5.07,0,0,0,5.21-4.64c0-.79-.33-1.1-.74-1.1a.46.46,0,0,0-.49.53c0,.18.22.29.22.57,0,.49-.17.91-1.57.91a5.94,5.94,0,0,1-3.9-1.57,52.89,52.89,0,0,1-9.46,5.69v.31a1,1,0,0,1,.57,1v3.89c0,.5-.15.8-.57.92v.31l5.21,2.67-4.07,4.51c-2.39,2.64-3.16,4.36-3.16,5.65,0,.83.46,1.31.92,1.31a.67.67,0,0,0,.66-.61c0-.6-.61-.55-.61-1,0-.67.61-1.36,2.58-1.36a8.59,8.59,0,0,1,5.26,2.23,47.84,47.84,0,0,1,9.72-6.3v-.31c-.31-.09-.53-.33-.53-.92v-4.34a.9.9,0,0,1,.53-.83v-.3l-6.13-3.11Zm1.71,10.72-.09,0a6.9,6.9,0,0,0-4.6-2,9.85,9.85,0,0,0-4.59.83l-.09,0,6.35-6.74,3,1.4Zm-12.39-3.46a.58.58,0,0,0-.57-.61c-.79,0-1,.74-1.19,1.49l-2.58,2.45a45.35,45.35,0,0,0-5.34-2.63v-4l10.2-6.44c-1.7-2-4.33-5.61-6.13-8.28a114.21,114.21,0,0,1-10,5.61v.26a1.09,1.09,0,0,1,.7,1.14v12.61a1.23,1.23,0,0,1-.65,1.14v.26a82.84,82.84,0,0,1,8.54,4.47l6.69-6.61A1.16,1.16,0,0,0,225.74,119.24Zm-9.68-14.75.09,0c1.34,2,3.76,5.26,5.16,7l-5.25,3.37Zm-18.75,5c-1.7-2-4.33-5.61-6.13-8.28a114.71,114.71,0,0,1-10.07,5.61v.26a1.09,1.09,0,0,1,.7,1.14v12.61a1.24,1.24,0,0,1-.65,1.14v.26a85,85,0,0,1,8.54,4.51l6.69-6.65a1.2,1.2,0,0,0,.36-.84.55.55,0,0,0-.53-.61c-.83,0-1.05.7-1.23,1.49l-2.58,2.45a44.6,44.6,0,0,0-5.34-2.63v-4Zm-10.24-5,.09,0c1.33,2,3.76,5.26,5.16,7l-5.25,3.37Zm-8.76,20.14c-1.24,0-1.67-.91-1.67-2.63V108.25c0-.74.3-1.09.62-1.22v-.22a80.81,80.81,0,0,1-8.24-5.65,44.14,44.14,0,0,1-10,5.69v.22c.5.09.78.49.78,1.23v12.52a1.06,1.06,0,0,1-.7,1.05v.26a78.26,78.26,0,0,1,8.41,4.6c1-.89,3.09-2.48,4.12-3.19a4.52,4.52,0,0,0,4.51,3.94,5.61,5.61,0,0,0,1.88-.31l.05.09a3.57,3.57,0,0,1-3.64,2.36c-4.19,0-6.68-2.54-10.64-2.54-3.6,0-6.14,2.4-6.92,6.18l.57.48a4.76,4.76,0,0,1,3.9-1.45c3.64,0,6.15,2.11,10.16,2.11,5.12,0,7.65-4,7.79-9.51l-.3-.3A3.07,3.07,0,0,1,178.31,124.63Zm-6.88-2-.65.48a53.79,53.79,0,0,0-5.78-3.41V104.92l.21-.17c1.65,1.29,4.85,3.6,6.22,4.51Zm-38.18.7a1.27,1.27,0,0,1-1.19-1l-9.19-27.2a4.28,4.28,0,0,1-.26-1.4,3,3,0,0,1,.61-2l-.13-.22a2.65,2.65,0,0,0-1.8,1.84h-.09a4.9,4.9,0,0,0-4.33-2.28,4.63,4.63,0,0,0-4.51,3.77l.35.3a2.9,2.9,0,0,1,2.23-1c1.15,0,2.22.88,2.76,2.5l.26.78-7.79,22.86c-4.52.33-7.11,3.05-7.75,6.18l.48.17a9.45,9.45,0,0,1,6-1.79,7.21,7.21,0,0,1,4.73,1.79l3.72-6-.7-.44c-.55.92-1,1.31-1.49,1.31s-2.1-1.09-3.89-1.22l1.62-4.69h11.21l2.89,8.41a3.72,3.72,0,0,0,3.63,2.89c2.21,0,3.74-1.89,5.21-4.42l-.83-.57C134.44,122.92,134,123.36,133.25,123.36Zm-19.23-11,4.47-13.13h.09L123,112.41ZM84.86,112l-3.2-1.54v-5.73l.22-.14a5.62,5.62,0,0,0,4.68,1.89,4.87,4.87,0,0,0,5.22-4.64c0-.79-.33-1.1-.75-1.1a.46.46,0,0,0-.48.53c0,.18.22.29.22.57,0,.49-.18.91-1.58.91a6,6,0,0,1-3.9-1.57,52.78,52.78,0,0,1-9.45,5.69v.31a1.21,1.21,0,0,1,.56,1v3.89c0,.5-.14.8-.56.92v.31L81.05,116,77,120.47c-2.38,2.64-3.15,4.36-3.15,5.65,0,.83.46,1.31.92,1.31a.67.67,0,0,0,.66-.61c0-.6-.62-.55-.62-1,0-.67.62-1.36,2.59-1.36a8.57,8.57,0,0,1,5.25,2.23,47.84,47.84,0,0,1,9.72-6.3v-.31a.89.89,0,0,1-.52-.92v-4.29a.87.87,0,0,1,.52-.83v-.35l-6.13-3.11Zm1.7,10.72-.08,0a7,7,0,0,0-4.6-2,9.9,9.9,0,0,0-4.6.83l-.09,0,6.35-6.74,3,1.4Zm-35.75-2.19c-.69,0-3.27-1.22-6.17-1.22-.32,0-.71,0-1.18.08v-22a9.32,9.32,0,0,0,2.62.31c3.07,0,6.05-2.44,6.05-5.34,0-.56-.29-1.06-.7-1.06a.51.51,0,0,0-.57.53c0,.22.3.33.3.7,0,.69-.79,1-2.36,1-2.07,0-4.35-1.55-5.78-2.94L35.31,97a6.81,6.81,0,0,1,2.59-4.9l-.53-.48c-4.47,2.25-6.88,5.25-6.88,10.64s3,7.75,3,13.05c0,5-1.93,9.16-3.77,10.77l.57.61c1.66-1.06,7.52-2.27,12.22-2.27a10.75,10.75,0,0,1,7.13,2.36l4.21-8.06-.88-.43C52.19,119.79,51.83,120.51,50.81,120.51Zm-8.18-1.05a24.91,24.91,0,0,0-8.37,2.63l-.17,0c2-1.94,4.55-5.73,4.55-9.38,0-5.21-3.37-8.12-3.37-14.58l4.29-3.46A8.51,8.51,0,0,0,42.63,97Zm29.6.18V108.21c0-.56.1-1,.57-1.14v-.26c-2.24-1.4-6.13-3.94-8.28-5.65a40.67,40.67,0,0,1-9.94,5.69v.26c.55.12.74.53.74,1.54v10.81c0,.66-.13,1.14-.65,1.32v.3C57,122.44,60.45,125,63,126.73A52.67,52.67,0,0,1,73,121v-.26A1.18,1.18,0,0,1,72.23,119.64ZM67,123.1l-.17.13A61.14,61.14,0,0,0,60.58,119V104.92l.26-.17A67.66,67.66,0,0,0,67,109Z"/>
	</symbol>
	<symbol id="provider_nba" viewBox="0 0 400 225">
		<title>NBA League Pass</title>
		<path d="M188,135H212c-2.75-1.48-1.12-4.3-1-9.7-1.29-1.15-.42-1.64-.48-2.09-.85-3.56-3.68-5.71-2.23-6.89a28.2,28.2,0,0,0-1.05-2.64,45.41,45.41,0,0,1-8.81-7.24c-.76-.85-2.07-1.69-2.32-2.37a68.1,68.1,0,0,1-7.46-11l-2.11-.28c-1-3.92-4.15-7.2-4.23-11.14a22,22,0,0,1,.93-5.29,7.1,7.1,0,0,1,1.49-1.69V73.56c-4.61.14-3.27-.34-4.07-2.11-.55-1.24-.16-1.51,0-2.38.6-2.52,2.66-6.43,3.52-8.21.25-.89,1.14-3,1.14-3,3.42-7,4.69-6.47,8.75-6.86l.21-.3c4.09-.17,3.43-.48,4-4.4-.58.25-.76-1.23-.76-1.23-.32-2.23.61-1.81,1.06-1.86.1-3.66.47-4.82,3.13-5.83H188a8.12,8.12,0,0,0-8.12,8.12v81.42A8.12,8.12,0,0,0,188,135Zm14-17.78h3.71L208,129.39h-2.93l-.26-2.67h-2l-.29,2.67h-2.8Zm-9.64,0h4c2,0,3,.77,3,2.86,0,1.28-.2,2.42-1.55,2.87v0c1.37.25,1.85,1.27,1.85,2.82,0,2-.75,3.6-3.24,3.6h-4.07Zm-8.19,0h2.76l1.93,6.68.08.49h0v-7.17h2.44v12.17h-2.74l-2-7.1-.07-.43h0v7.53h-2.44ZM197,120.6c0-.85-.19-1.32-.87-1.32h-.88V122H196C196.92,122,197,121.36,197,120.6ZM206.09,54c.73.44,1.1.78,1.85,1.26,1.94,1.24,4.37,3.43,4.06,11,.54,1.66.79,4.89,1.31,5.92a16.92,16.92,0,0,1,2,5.25l.67,3.2c1.78.4,1.55.6,1.66.88a.66.66,0,0,0,.08.13c.32.4,1.5.39,1.5,1.48a7.62,7.62,0,0,1,.94,1.69V45.46A8.13,8.13,0,0,0,212,37.34h-7.77a3.82,3.82,0,0,1,2.38,1.79,1.28,1.28,0,0,1,.9.72c.54.92.67,2.68-.59,4.93.82.54.19,1.38-.39,2.33-.18.3-.38.85-.91.8-.72,1.5-1.56,2.93-2.2,3l-.05,1.19a10.41,10.41,0,0,1,2.66,1.54Zm-9,71.65c0-.83-.1-1.64-1-1.64h-.89v3.31h.83C197,127.31,197.12,126.86,197.12,125.64Zm6.78-6.31,0-.28h0l0,.28-.7,5.47h1.4Zm9.36,15.58h.05a8.09,8.09,0,0,0,6.83-8V90.11a7.28,7.28,0,0,1-6.74,4.58,7.25,7.25,0,0,1-1.72-14.3c-.82-2.09-2.6-5.47-3.1-6.58s-1.69-8-2-9.35l-3.14,1.91-2.39,6,0,.94s1,.13,1.64,2,2.41,8.45,2.41,8.45l-.52.48c2.31,7.65,1.5,11,2.51,13.2,1.31,3.16,1.65,2.74,2.75,5.42.79,1.92,1.69,9.56,2,9.89,1.22,1.57,1.91,2.81,1.91,3.69s-1.06,3.52-.69,5c.24.93.36,2.93.77,3.3l.21,1.1-.12.43c.39,1.41,1.31,3.4,1.29,5.25A3.81,3.81,0,0,1,213.26,134.91Zm-69.72,11.8H256.46v-2.1H143.54Zm-36.18,8.93-7.21,31.41H107l1-6h6.78l1,6h6.9l-7-31.41ZM109,175.35l2.34-14h.08l2.41,14ZM281,165.19c0-3.92-1.35-9.55-8.36-9.55h-10.3v31.41H269V174.78H272C278.62,174.78,281,170.82,281,165.19Zm-10.18,4.13H269V161.1h1.71c2.69,0,3.4,1.85,3.4,4.26C274.14,167.47,273.51,169.32,270.86,169.32Zm-47.43,9.5c0,2.47-.87,3.92-2.65,3.92s-2.66-1.45-2.66-3.92V155.64h-6.65v21c0,6.16,1.58,11,9.31,11s9.31-4.83,9.31-11v-21h-6.66Zm105.74-15.48c0-2.29,1-3.39,2.65-3.39a2.05,2.05,0,0,1,2,1.1,7.17,7.17,0,0,1,.55,3.3h6.42v-.75c0-4.84-2.38-8.57-9-8.57-6.86,0-9.27,4.22-9.27,9.23,0,11.75,12.16,8,12.16,14.74,0,1.8-.67,3.74-3,3.74s-2.89-1.8-2.89-4.18v-1.1h-6.42v2c0,6.56,4.47,8.18,9.31,8.18,6.06,0,9.61-2.81,9.66-9.83v-.22C341.28,166.61,329.17,169.88,329.17,163.34Zm-20.68,0c0-2.29,1-3.39,2.66-3.39a2,2,0,0,1,2,1.1,7.14,7.14,0,0,1,.55,3.3h6.42v-.75c0-4.84-2.38-8.57-9-8.57-6.86,0-9.27,4.22-9.27,9.23,0,11.75,12.16,8,12.16,14.74,0,1.8-.67,3.74-3,3.74s-2.89-1.8-2.89-4.18v-1.1h-6.42v2c0,6.56,4.48,8.18,9.31,8.18,6.1,0,9.66-2.85,9.66-10C320.65,166.59,308.49,169.89,308.49,163.34Zm-22.82-7.7-7.21,31.41h6.89l1-6h6.77l1,6H301L294,155.64Zm1.63,19.71,2.33-14h.08l2.42,14Zm-48-1.45h9.11v-6h-9.11v-6.29H249v-6H232.66v31.41h16.8v-6H239.32ZM137.66,155.64H131v31.41h16.28v-6h-9.63Zm18.15,18.26h9.11v-6h-9.11v-6.29h9.71v-6H149.15v31.41H166v-6H155.81Zm43.81,1.23h3.13v1c0,4.31-.79,6.6-3,6.6-2.66,0-3.06-2.77-3.06-11.35,0-8.36.32-11.44,3.06-11.44,2.45,0,2.65,3.21,2.65,5.24h6.41c0-3.57-.35-10.16-9-10.16-9.43,0-10.06,6.68-10.06,17,0,9.82,1.19,15.66,8.28,15.66,2.58,0,5.07-.79,6.1-3.6h.08l.15,3h4.56V170.2h-9.31Zm-104.9-4.58v-.08c2.69-.58,4.43-3.44,4.43-7.09,0-5.23-3.2-7.74-8-7.74H80.77v31.41H90.6c7.88,0,9.35-5,9.35-8.71C100,171.92,96.82,170.91,94.72,170.55Zm-7.29-9.45h1.86c2.42,0,3.21,1.76,3.21,3.38,0,2.25-1,3.7-3.25,3.7H87.43Zm2,20.49h-2V173.1h2.14c2.06,0,3.49,1.32,3.49,4.4C93.06,179.7,92.14,181.59,89.45,181.59Zm84.54-26-7.21,31.41h6.9l1-6h6.77l1,6h6.9l-7.06-31.41Zm1.63,19.71,2.33-14H178l2.42,14Zm-103.76.7h-.08l-5.47-20.41H58.67v31.41h5.94V165.41h.08l5.82,21.64H78V155.64H71.86Z"/>
	</symbol>
	<symbol id="provider_mlb" viewBox="0 0 400 225">
		<title>Major League Baseball TV</title>
		<path d="M250,87l.82-5.38-31.1-40.73-97.19-.05a10.65,10.65,0,0,0-10.68,10.68v70.3a10.65,10.65,0,0,0,10.68,10.67h62.88c-.7-2.4-2.65-7.57-4.38-7.58-1.38-.12-6.64.54-7.56-.46,4-29.29,9.1-27.13,14.28-30.94.94-.69-.65-1.55,0-2.43.78-1.1-.85-2.18-.26-3.24.9-1.62-6.24.24-5.68-1.37,1.11-3.15,2.4-5.21,3.19-7.91.65-2.25-.07-1.22-.07-2.23,0-1.51-11.43.82-11.08-.62.64-2.64,10-5.28,9.86-7.9A16.54,16.54,0,0,1,200,50c12.3-.21,15.74,1.13,20.18,9.21,2.92,5.84,6.41,15.53.17,18.23.38,2.85,1,5.29,2.65,6.29,2.18-.08,3,.11,4.87.1C240.86,83.81,246.91,84.84,250,87ZM140.26,110.54a7.06,7.06,0,1,1-14.11,0h0a7.06,7.06,0,0,1,14.11,0ZM277.46,40.8l-44.52.05,25.52,41.66c2.17,1.07,3.65,3.37,5.76,5.95,1.89,2.31,4.52,4.65,4.86,9.53,6.45,4.4,8.37,8,9.95,10.94,2.9,5.36,1.45,8.55,1.42,10.44-4,4.43-11.26,5.79-22.19,5.24l-.29,7.84h19.49a10.65,10.65,0,0,0,10.68-10.67V51.48A10.65,10.65,0,0,0,277.46,40.8Zm-103,106.37H166v36.41h24.16v-6.5H174.49Zm93,29.73-.17.84h-.1l-.17-.91L262.2,158.7h-6l8,24.88h6.24l8.06-24.88h-6.05ZM140.9,172.66h-.15l-8.15-25.49H121.5v36.41H130v-9l-.8-16.41.15,0L138,183.58h5.7l8.78-25.68.15,0-.8,16.63v9h8.48V147.17H149.15Zm74.72-7.81a7.51,7.51,0,0,0,3.78-3,8.81,8.81,0,0,0,1.22-4.62,8.37,8.37,0,0,0-3.8-7.49q-3.8-2.52-10.58-2.52h-12.5v36.41h14.31q6.67,0,10.25-2.72t3.57-8.05a8.65,8.65,0,0,0-1.52-5A7.53,7.53,0,0,0,215.62,164.85Zm-13.4-11.17h4a7.56,7.56,0,0,1,4.46,1.06,3.94,3.94,0,0,1,1.45,3.39,3.65,3.65,0,0,1-1.43,3.11,7.35,7.35,0,0,1-4.3,1.11h-4.2ZM212.1,176a6.47,6.47,0,0,1-4,1.06h-5.83V168h6.3a4.26,4.26,0,0,1,4.93,4.81A3.9,3.9,0,0,1,212.1,176Zm24.55-12.88h6.51v20.44H249V163.14h6.57V158.7H236.65Zm-6.14,12.77a4.15,4.15,0,1,0,4.08,4.16A3.93,3.93,0,0,0,230.51,175.91Z"/>
	</symbol>
	<symbol id="provider_gamefly" viewBox="0 0 400 225">
		<title>Gamefly</title>
		<path d="M98.87,82.13c-9,.88-17.06,5.22-21.67,11h5.35c10.74-12.36,28-11.35,35.94-1.67,8.11,9.87,4.83,22.5,3.06,26.58-1.54,3.53-6.06,10.43-12.59,14.3-8.16,4.83-20.81,7.29-30.37-3.81H70c1.43,4.8,7.79,11.35,17.06,13.72a32.51,32.51,0,0,0,22.82-3.3c18.45-10.44,25.75-34.95,10.57-50.24C115.15,83.35,107.13,81.33,98.87,82.13ZM81.69,117.78l1.62-5.2c.6-1.81-.27-4.28-3.75-4.28H58.79L64,112.92H78.92l-1.42,4.56H48.25L52.44,104H86c.52-1.19.26-4.53-2.63-4.53H54.47c-2.86,0-5.72,1.66-6.49,4L43.72,117.2c-.62,1.71,0,4.78,3.05,4.78h28.6A6.25,6.25,0,0,0,81.69,117.78ZM110.63,104c.51-1.19.26-4.53-2.63-4.53l-18.21,0-7,22.51h4.65l2.9-9.06h14.32l4.73-4.62H91.77L93.1,104Zm27,2.73V115a7.49,7.49,0,0,0,7.47,7.47H165V108.11H149.13l3.56,5.56h6.59v3.08H145.16a1.78,1.78,0,0,1-1.8-1.81v-8.12a1.78,1.78,0,0,1,1.81-1.81H165V99.27H145.09A7.5,7.5,0,0,0,137.62,106.75Zm43.91-7.48-14.68,23.22h7L185,104.89l5.67,9h-8L179.49,119h14.37l2.24,3.54h7L188.43,99.27Zm40.75,7.09a15.4,15.4,0,0,0-6.74-5.28c-3.69-1.55-7.51-1.79-11.47-1.81v23.22h6.42V105.93c3.86.7,8.16,4.74,8.95,7.93h5.68c.8-3.19,5.1-7.23,8.95-7.93v16.56h6.43V99.27c-4,0-7.79.26-11.48,1.81A15.45,15.45,0,0,0,222.28,106.36ZM252.57,105h16.64l3.46-5.74H252.5a7.51,7.51,0,0,0-7.48,7.48V115a7.5,7.5,0,0,0,7.48,7.47h20.09l-3.49-5.74H252.57a1.77,1.77,0,0,1-1.8-1.81V113.8h12.34v-5.67H250.77v-1.31A1.77,1.77,0,0,1,252.57,105Zm24.7,1.74v15.74H283V113.8h12.34v-5.67H283v-1.31a1.77,1.77,0,0,1,1.8-1.81h16.64l3.46-5.74H284.75A7.51,7.51,0,0,0,277.27,106.75Zm37.47,10a1.77,1.77,0,0,1-1.8-1.81V99.27H307.2V115a7.49,7.49,0,0,0,7.47,7.47h20.17l-3.46-5.74Zm36-17.48v7a2,2,0,0,1-2.07,1.8H336.32a2,2,0,0,1-2.06-1.8v-7h-5.75v7.09c0,4.44,3.94,7.47,8.12,7.47h3v8.65h5.75v-8.65h3c4.18,0,8.12-3,8.12-7.47V99.27Z"/>
	</symbol>
	<symbol id="provider_youtubetv" viewBox="0 0 400 225">
		<title>YouTube TV</title>
		<path d="M345,88.31l-2.65,21.74c-.73,6.36-1.45,11.59-2.18,19h-.34c-.79-7.36-1.45-12.72-2.18-19L335,88.31h-8.28l8,48.31h10.47l7.95-48.31Zm-43.47,6.43h7.89v42h7.75V94.74H325V88.31H301.51ZM118.5,86C112.2,84.34,87,84.34,87,84.34s-25.18,0-31.47,1.65a10,10,0,0,0-7.09,7.16c-1.66,6.3-1.66,19.35-1.66,19.35s0,13.12,1.66,19.35A10.14,10.14,0,0,0,55.61,139c6.23,1.65,31.41,1.65,31.41,1.65s25.18,0,31.48-1.65a10.29,10.29,0,0,0,7.15-7.09c1.66-6.3,1.66-19.35,1.66-19.35s-.07-13.12-1.72-19.42A10.2,10.2,0,0,0,118.5,86ZM79,124.56V100.44L99.94,112.5Zm74.48-36.25-3.31,14.85c-.93,4.37-1.52,7.42-1.79,9.27h-.26q-.6-3.87-1.79-9.34l-3.18-14.78h-7.89l9,32.67h.07v15.71h7.88V121l9.15-32.67Zm26.71,19a9.22,9.22,0,0,0-3.45-5,11.21,11.21,0,0,0-6.29-1.59A12,12,0,0,0,164,102.3a9.27,9.27,0,0,0-3.58,5,30.36,30.36,0,0,0-1.19,9.15v5.1a34.26,34.26,0,0,0,1,9,8.4,8.4,0,0,0,3.38,5h0a12.46,12.46,0,0,0,6.63,1.65,11.63,11.63,0,0,0,6.49-1.59,9,9,0,0,0,3.45-5,32.88,32.88,0,0,0,1.06-9.08v-5.1A30.58,30.58,0,0,0,180.19,107.33Zm-7,17.1a16.67,16.67,0,0,1-.66,5.63,2.34,2.34,0,0,1-2.26,1.79,2.24,2.24,0,0,1-2.32-1.72,16.7,16.7,0,0,1-.66-5.64v-11a17.73,17.73,0,0,1,.66-5.56,2.34,2.34,0,0,1,2.26-1.79,2.41,2.41,0,0,1,2.32,1.79,17.45,17.45,0,0,1,.66,5.56Zm25.71,5a3.69,3.69,0,0,1-1.39,1.59,3.64,3.64,0,0,1-2,.66,1.73,1.73,0,0,1-1.72-1,8.33,8.33,0,0,1-.53-3.38V101.37h-7.95v26.37c0,3.31.53,5.7,1.65,7.22a6,6,0,0,0,5.17,2.32,8.15,8.15,0,0,0,7.62-4.9h.2l.66,4.31h6.23V101.37h-7.95Zm40.75,0A3.56,3.56,0,0,1,238.3,131a3.64,3.64,0,0,1-2,.66,1.73,1.73,0,0,1-1.72-1,8.33,8.33,0,0,1-.53-3.38V101.37h-7.95v26.37c0,3.31.53,5.7,1.65,7.22a6,6,0,0,0,5.17,2.32,8.14,8.14,0,0,0,7.62-4.9h.2l.66,4.31h6.23V101.37h-7.95Zm55.66-27.24a11.21,11.21,0,0,0-6.29-1.52c-3.91,0-6.69,1.19-8.35,3.64s-2.45,6.3-2.45,11.6V122c0,5.17.79,9,2.38,11.4s4.31,3.71,8.22,3.71c3.25,0,5.76-.8,7.55-2.39s2.65-4,2.65-7.28a8.79,8.79,0,0,0-.06-1.26l-6.83-.47a11.93,11.93,0,0,1-.73,4.64,2.87,2.87,0,0,1-4.44.6,4.8,4.8,0,0,1-.86-2.45c-.13-1.73-.2-3.38-.2-5.11v-1.79l13.39-.06v-6a32.64,32.64,0,0,0-.86-8.75A8.37,8.37,0,0,0,295.35,102.16Zm-3.58,14.78h-5.83v-2.52c0-1.72.07-3.44.2-5.17a4.64,4.64,0,0,1,.8-2.45h0a2.16,2.16,0,0,1,1.85-.73,2.27,2.27,0,0,1,1.86.73,4.8,4.8,0,0,1,.86,2.45,44.87,44.87,0,0,1,.26,5.17ZM274,107a9.18,9.18,0,0,0-2.32-4.84,6.48,6.48,0,0,0-4.44-1.52,7.16,7.16,0,0,0-4.11,1.26,8,8,0,0,0-2.91,3.24h-.07V86.52h-7.62v50.17H259l.8-3.32H260a6.73,6.73,0,0,0,2.79,2.85,8.84,8.84,0,0,0,4.11,1.06,6.4,6.4,0,0,0,6-3.71c1.26-2.45,1.92-6.36,1.92-11.59v-5.57A62.57,62.57,0,0,0,274,107Zm-7.29,14.38a46.87,46.87,0,0,1-.33,6,6.43,6.43,0,0,1-1.06,3.11,2.47,2.47,0,0,1-2,.93,3.3,3.3,0,0,1-1.79-.46,3.84,3.84,0,0,1-1.32-1.39v-20a5.4,5.4,0,0,1,1.39-2.38,2.84,2.84,0,0,1,2.12-.93,2.2,2.2,0,0,1,1.85.93,7.55,7.55,0,0,1,.93,3.18c.2,2.12.27,4.24.27,6.36ZM228.49,88.31H205v6.43h7.88v42h7.76V94.74h7.88Z"/>
	</symbol>
</svg>