<svg xmlns="http://www.w3.org/2000/svg" xmlns:xlink="http://www.w3.org/1999/xlink" viewBox="0 0 5314.96 212.6">
  <defs>
    <radialGradient id="a" cx="4999.42" cy="124.19" r="77.85" gradientUnits="userSpaceOnUse">
      <stop offset="0" stop-color="#ff7a99"/>
      <stop offset="0.22" stop-color="#ff7697"/>
      <stop offset="0.43" stop-color="#ff6b91"/>
      <stop offset="0.63" stop-color="#ff5886"/>
      <stop offset="0.84" stop-color="#ff3d78"/>
      <stop offset="1" stop-color="#ff2169"/>
    </radialGradient>
    <radialGradient id="b" cx="4574.38" cy="138.94" r="66.58" xlink:href="#a"/>
    <radialGradient id="c" cx="4788.39" cy="132.84" r="71.13" xlink:href="#a"/>
    <radialGradient id="d" cx="5208.45" cy="118.89" r="87.33" xlink:href="#a"/>
    <radialGradient id="e" cx="2219.36" cy="80.3" r="104.63" xlink:href="#a"/>
    <radialGradient id="f" cx="2007.06" cy="80.82" r="104.11" xlink:href="#a"/>
    <radialGradient id="g" cx="1795.4" cy="82.38" r="102.54" xlink:href="#a"/>
    <radialGradient id="h" cx="1584.37" cy="84.98" r="99.92" xlink:href="#a"/>
    <radialGradient id="i" cx="1371.77" cy="84.98" r="99.92" xlink:href="#a"/>
    <radialGradient id="j" cx="1161.05" cy="88.1" r="96.78" xlink:href="#a"/>
    <radialGradient id="k" cx="950.94" cy="92.26" r="92.6" xlink:href="#a"/>
    <radialGradient id="l" cx="741.47" cy="97.45" r="87.37" xlink:href="#a"/>
    <radialGradient id="m" cx="531.38" cy="101.61" r="83.18" xlink:href="#a"/>
    <radialGradient id="n" cx="320.34" cy="104.21" r="80.57" xlink:href="#a"/>
    <radialGradient id="o" cx="108.69" cy="105.77" r="79" xlink:href="#a"/>
    <radialGradient id="p" cx="2437.6" cy="112.83" r="74.3" xlink:href="#a"/>
    <radialGradient id="q" cx="2650.19" cy="112.63" r="74.4" xlink:href="#a"/>
    <radialGradient id="r" cx="2862.04" cy="112.7" r="74.73" xlink:href="#a"/>
    <radialGradient id="s" cx="3073.72" cy="112.3" r="75.4" xlink:href="#a"/>
    <radialGradient id="t" cx="3285.56" cy="112.16" r="75.87" xlink:href="#a"/>
    <radialGradient id="u" cx="3499.5" cy="114.78" r="73.91" xlink:href="#a"/>
    <radialGradient id="v" cx="3712.72" cy="111.35" r="75.25" xlink:href="#a"/>
    <radialGradient id="w" cx="3923.65" cy="112.99" r="76.74" xlink:href="#a"/>
    <radialGradient id="x" cx="4134.56" cy="114.3" r="78.56" xlink:href="#a"/>
    <radialGradient id="y" cx="4360.28" cy="127.13" r="69.29" xlink:href="#a"/>
  </defs>
  <title>Artboard 26</title>
  <path d="M5001.36,170.51c-12.87,4.65-17.8,7.58-17.09,12s14.63,5.38,27,.7c7.72-2.91,13.74-6.58,11.88-10.82S5014.23,165.87,5001.36,170.51ZM5039,145.44c-5.91,5.21-5.11,13.37.18,14.72s5.88-2.92,10.5-7.92c4.2-4.53,6.43-5,3.66-9S5044.88,140.23,5039,145.44Zm-86.21,22.1c-4.33-1.48-12.07-3.55-9.38,2.86s7.63,8.79,13.59,7.22C4967.77,174.79,4957.09,169,4952.76,167.54Zm62.62-19.7c-10.9,1.18-8.77,5.88-8.55,8s7,2.67,12.44-.94C5025.35,150.88,5026.29,146.66,5015.38,147.84Zm-21.19,4C4991,150,4983,151,4979,157.29s-.25,7.43,6.47,5.24C4996.65,158.9,4997.37,153.59,4994.19,151.8ZM5069,119.22c-7.17,5.66-3.5,10.16,2.55,10.06,2.51,0,2.63-.55,5.82-7.54S5076.17,113.57,5069,119.22ZM4960.12,135.3c-2,4.15,1.21,6.46,3.44,5.39,0,0,1.88,0,1.23-4.78S4962.14,131.15,4960.12,135.3Zm61.89-29c1.84-2,.85-7.52-1.43-7.94s-5.1,2.25-5.4,5.33A3.86,3.86,0,0,0,5022,106.34Zm26.84-36.22a5.1,5.1,0,0,0-2.11-7.89c-2.79-1.1-4.36,2.25-4.51,8.64S5046.21,73.63,5048.85,70.12Zm34.32,5.26c-1.61,1.87-1.28,3.59.42,5.42s3.94-1.44,5.39-3.84C5093.54,69.4,5084.78,73.51,5083.17,75.38ZM5039.93,130c2.64-1.41,4-4,2.61-5.52s-5.56,3-6.59,4-2.13,2.15-.95,3.65S5036.65,131.73,5039.93,130Zm-43.59-9.78c1.21-1.12,2.48-3.4-.71-3.88s-3,2.32-2.6,3.86S4994.38,122,4996.34,120.2Zm-79.93,30.3c-2.66-.73-8.06-.11-7.85,2.63s3.94,1.17,6.53.81,4.06,2.21,6.4,0C4924,151.64,4919.07,151.22,4916.41,150.5Z" fill="url(#a)"/>
  <path d="M4574.63,100.74c1.4-2-.13-3.24-2.49-3.43s-2.15,1.21-2.47,3.43S4572.57,103.64,4574.63,100.74Zm10.75,36.31c1.84,0,2.41-2.29,4-5s-1.14-11-5-4.52S4583.79,137.05,4585.38,137.05Zm-1.4,23c-1.34,2.67,6.49,4.1,13.35,0,7.76-4.64,4.45-8.46-1.27-7.25S4585.31,157.34,4584,160Zm-35.3-.64c2.17-1.46,3.5-7.18.51-9.66s-2.8-.19-3.69,4S4545.64,161.43,4548.68,159.37Zm70.08-41.46c-1.14,3.63-1,8.07,2.23,6,4.19-2.74,5-5.66,3.18-8.33S4619.91,114.29,4618.76,117.91Zm17.29-7.18c1.22-1.16.45-2.87-1-2.68a3,3,0,0,0-2.48,3.31C4632.81,112.89,4634,112.64,4636.05,110.73Zm-21.17,30.9c2.83-1.86,2.67-5.21,0-5.85s-6.93,4.07-6.94,7.63S4611.52,143.84,4614.88,141.63Zm-113.83-11.95a3.76,3.76,0,0,0-5.91,2.29c-.76,3.11,3.83,5.77,6.49,3.49S4502.9,131.07,4501.05,129.68Zm116.38-28.3c3.49-2.16,6-10.81,2.06-12.72s-5.12,2.54-7.05,6.49S4612.72,104.28,4617.43,101.38Zm16.66,24.67c-4.9,4.13-7.51,8.4-4.26,12.21s7.62,1.74,10.68-4.32C4648.78,117.53,4639,121.92,4634.09,126.05ZM4571.83,166c8.71-9.64,4.71-14.53-4.83-11.09s-11,10.62-10.62,13.67S4566.29,172.08,4571.83,166Zm78.34-71.89c-3.49.13-5.46,2.29-4.64,6.87s2.8,2.81,6.43-1.08C4655.12,96.46,4653.67,93.94,4650.17,94.06Zm-91.63,33.2c.89-1-.83-1.59-.13-2.83s2.61-2.32,1-4-4.64.19-5.53,3S4556.21,129.93,4558.54,127.26Zm-26.33,9.79c.95-.57.45-2.6-.82-3.75s-2.87-.06-3.25,2.42S4530.24,138.25,4532.21,137.05Zm-3.43,33.13c-.26,10.24,13.77,11.65,20.28,9.92,5.28-1.4,4.9-4.45,2.87-6.67S4529,160,4528.78,170.18Zm-21.05-12c.19,4.46,4.64,1.59,7.44,1s5.25,2.26,5.72,0C4521.66,155.56,4507.54,153.71,4507.73,158.16Zm122.35-13c-3-1.76-8.78-4.45-17.17,2.61-6.49,5.46-6.29,11.18-4.06,15.19h0c1.29,2.36,1.16,4,.26,4.68s-3.33-.42-5.58-1.45h0c-11.73-5.4-32.15,5.31-39.17,7.71s-5.7,7.79-3.06,10.37c7.19,7,14.57,5.23,14.57,5.23,20.76-4.15,38.07-14.55,44.68-5.22-5.11-7.22,3-18,11.35-31.72C4631.87,152.53,4634.89,147.91,4630.08,145.13Z" fill="url(#b)"/>
  <path d="M4802,122c2.12,0,2.78-2.1,4.61-4.6s-1.32-10.08-5.71-4.14S4800.13,122,4802,122Zm6.44,35.36c7.76-4.64,4.45-8.46-1.27-7.25s-13.2,3.09-12.08,7.25C4795.82,160.19,4801.54,161.42,4808.4,157.31Zm-51.52-17.5c-2.71-2.24-3.21-.53-4,3.32s.8,7.29,3.55,5.43C4758.38,147.24,4759.58,142.06,4756.88,139.81Zm71.11-5.37c2.83-1.42,2.67-4,0-4.49s-6.93,3.13-6.94,5.86S4824.63,136.14,4828,134.44Zm-118.4-6.52a2.65,2.65,0,0,0-4.15,1.61c-.53,2.19,2.69,4.05,4.55,2.45S4710.89,128.91,4709.59,127.92Zm119.77-40.75c3.49,1.18,4-2.7,5.23-6.23s-.28-5.64-4.87-4.7C4826.2,77,4825.86,86,4829.36,87.17Zm23.31,34.47c-4.48,3.78-6.86,7.67-3.89,11.16s7,1.59,9.76-4C4866.09,113.86,4857.14,117.87,4852.67,121.64ZM4776.24,153c-8.08,2.91-9.32,9-9,11.58s8.4,3,13.1-2.19C4787.73,154.17,4784.33,150,4776.24,153Zm90.84-70c-3.23,1.34-4.32,4.06-1.94,8.06s3.6,1.64,5.63-3.27C4872.55,83.43,4870.31,81.57,4867.08,82.92Zm-89.25,41.74c.74-.85,2.06-4.29.74-5.66s-3.86.15-4.6,2.48S4775.89,126.88,4777.83,124.66ZM4737,169c-.2,8.23,11.07,9.36,16.3,8,4.24-1.13,3.94-3.58,2.3-5.37S4737.22,160.73,4737,169Zm-27.91-14c.19,4.45,4.64,1.59,7.44,1s5.25,2.25,5.72,0C4723,152.33,4708.92,150.49,4709.11,154.94Zm133.57-9.81c-3-1.76-8.78-4.45-17.17,2.61-5.34,4.49-6.15,9.15-5,12.9,1.29,4.15,11.46,12.66,15.81,5.29,2.32-4.08,5.24-8.56,8.19-13.4C4844.47,152.53,4847.49,147.91,4842.68,145.13Zm-16.9,35.38a11.8,11.8,0,0,1,3.42.69,1.7,1.7,0,0,0,2.33-1.67,13.54,13.54,0,0,1,.38-3.61C4833.2,170.61,4822.16,180.31,4825.78,180.51Zm-9.68-14.35c-11.73-5.4-32.15,5.31-39.18,7.71s-5.69,7.79-3.05,10.37c7.18,7,14.56,5.23,14.56,5.23,10.51-2.1,20.13-5.8,27.93-7.73C4831,177.57,4819.34,167.68,4816.1,166.16Z" fill="url(#c)"/>
  <path d="M5198.26,175.54c-10.68,3-14.95,5.35-15.1,9.83s10.46,7.08,20.79,3.95c6.43-1.95,11.66-4.85,10.89-9.26S5208.94,172.5,5198.26,175.54Zm57.34-41.79c-4.74,4.17-4.1,10.71.15,11.79s4.7-2.34,8.4-6.34c3.36-3.63,5.14-4,2.93-7.24S5260.33,129.58,5255.6,133.75Zm-102.67,35c-3.16-1.08-8.81-2.59-6.84,2.08s5.56,6.41,9.91,5.27C5163.88,174.05,5156.08,169.83,5152.93,168.76ZM5226,140c-7.23.78-5.81,3.89-5.67,5.29s4.62,1.77,8.25-.62C5232.61,142,5233.23,139.21,5226,140Zm-30,14.39c8.06-2.63,8.58-6.46,6.28-7.76s-8.12-.55-11,4S5191.13,156,5196,154.38Zm93.79-43.21c-5.7,4.49-2.77,8.06,2,8,2,0,2.08-.44,4.61-6S5295.47,106.68,5289.78,111.17Zm-119.32,15.25c-1.57,3.21.94,5,2.66,4.16,0,0,1.46,0,1-3.7S5172,123.21,5170.46,126.42Zm65.63-42.26c-1.58-.29-3.53,1.56-3.75,3.7a2.69,2.69,0,0,0,4.75,1.82C5238.36,88.3,5237.68,84.45,5236.09,84.16ZM5263,52.62a3.48,3.48,0,0,0-1.44-5.39c-1.91-.76-3,1.54-3.08,5.9S5261.24,55,5263,52.62Zm40.61,12c-1.2,1.39-.95,2.66.31,4s2.94-1.07,4-2.86C5311.36,60.15,5304.85,63.21,5303.65,64.6Zm-48.32,50.16c-1.22-1.3-4.81,2.58-5.7,3.42s-1.85,1.86-.83,3.15,1.43-.28,4.28-1.79C5255.36,118.32,5256.56,116.05,5255.33,114.76Zm-40.47-2.37c-3.19-.48-3,2.32-2.6,3.86s1.35,1.85,3.31,0C5216.78,115.15,5218.05,112.87,5214.86,112.39Zm-100.59,37c-2.14-.58-6.48-.09-6.31,2.11s3.17.94,5.25.65,3.25,1.77,5.13,0S5116.4,150,5114.27,149.38Z" fill="url(#d)"/>
  <g>
    <path d="M2294.39,141.86a68.55,68.55,0,0,0,6.36-28.83c0-39.83-34.15-72.12-76.27-72.12S2148.22,73.2,2148.22,113c0,37.89,30.92,68.94,70.2,71.86l0,0c26.5,2.41,54.36-12.22,63.53-.66-7.09-8.93,6.55-27.93,12.49-42.41Z" fill="url(#e)"/>
    <path d="M2253.47,52c-20.81-10.52-44-8.62-62.74,1.37,21.47-10,45.67-6.7,67.19,7.37,37.36,24.43,33.21,65.58,29.88,82.89C2296,122.32,2300.73,76.39,2253.47,52Z" fill="#ff8fa8"/>
    <path d="M2206.65,172.39c-39.9-18.21-55.91-60.42-38.75-95.65,3.69-7.59,9.89-14.1,16-19.11C2176,63.5,2168.74,71,2164.1,80.15c-17.65,34.87-4.94,75.94,31.08,93a72.73,72.73,0,0,0,41.35,6.8C2227.81,178.9,2217.54,177.35,2206.65,172.39Z" fill="#cc1b5b"/>
    <path d="M2274.26,84.91a105.13,105.13,0,0,0-8.08-10.75c-.72-.86-1.45-1.71-2.25-2.51s-1.54-1.64-2.33-2.44c-1.64-1.55-3.25-3.12-5-4.53a66.35,66.35,0,0,0-11.19-7.59,59.78,59.78,0,0,0-12.54-5,58.22,58.22,0,0,0-26.53-.9c-8.65,1.79-17.07,5.23-23.72,11.09a.65.65,0,0,0-.08.88.64.64,0,0,0,.91.12v0c6.71-5.21,15.06-8,23.36-9.18a54.42,54.42,0,0,1,24.73,2.38,57.08,57.08,0,0,1,20.95,12.86c1.53,1.39,2.92,2.93,4.33,4.44l2,2.37c.68.78,1.3,1.61,1.92,2.45A96.75,96.75,0,0,1,2267.58,89l.08.13.12.2a3.92,3.92,0,0,0,6.48-4.41Zm8.89,15a5.9,5.9,0,0,0-6.64-4.93,5.74,5.74,0,0,0-4.56,6.79,5.89,5.89,0,0,0,6.64,4.93A5.74,5.74,0,0,0,2283.15,99.86Z" fill="#fff"/>
  </g>
  <g>
    <path d="M2081.71,142.07a68.2,68.2,0,0,0,6.33-28.69c0-39.63-34-71.75-75.88-71.75s-75.88,32.12-75.88,71.75c0,37.71,30.76,68.6,69.85,71.51l0,0c26.37,2.39,54.09-12.16,63.22-.66-7.06-8.88,6.52-27.79,12.43-42.2Z" fill="url(#f)"/>
    <path d="M2041,52.68c-20.71-10.46-43.78-8.58-62.43,1.37,21.37-10,45.45-6.67,66.86,7.33,37.17,24.3,33,65.25,29.73,82.47C2083.32,122.63,2088,76.93,2041,52.68Z" fill="#ff8fa8"/>
    <path d="M1994.42,172.45c-39.71-18.12-55.64-60.12-38.57-95.17,3.68-7.56,9.85-14,15.93-19-7.88,5.84-15.09,13.29-19.7,22.41-17.56,34.69-4.92,75.56,30.92,92.56a72.39,72.39,0,0,0,41.14,6.76C2015.47,178.92,2005.25,177.39,1994.42,172.45Z" fill="#cc1b5b"/>
    <path d="M2061.69,85.41a105.6,105.6,0,0,0-8-10.7c-.72-.86-1.45-1.7-2.24-2.5s-1.53-1.63-2.32-2.43c-1.64-1.53-3.24-3.1-5-4.5A65.7,65.7,0,0,0,2033,57.72a60.42,60.42,0,0,0-12.47-5,58,58,0,0,0-26.41-.89c-8.6,1.78-17,5.2-23.59,11a.64.64,0,0,0-.09.88.65.65,0,0,0,.91.11h0c6.68-5.19,15-8,23.24-9.14a54.19,54.19,0,0,1,24.61,2.37A56.7,56.7,0,0,1,2040,69.9c1.52,1.38,2.9,2.91,4.31,4.41l2,2.36c.67.78,1.3,1.6,1.91,2.44A95.85,95.85,0,0,1,2055,89.47l.08.13.12.19a3.9,3.9,0,0,0,6.45-4.38Zm8.84,14.87a5.87,5.87,0,0,0-6.61-4.9,5.71,5.71,0,0,0-4.54,6.75A5.87,5.87,0,0,0,2066,107,5.72,5.72,0,0,0,2070.53,100.28Z" fill="#fff"/>
  </g>
  <g>
    <path d="M1868.93,142.7a67.08,67.08,0,0,0,6.23-28.25c0-39-33.46-70.67-74.74-70.67s-74.73,31.64-74.73,70.67c0,37.14,30.3,67.56,68.79,70.43l0,0c26,2.36,53.27-12,62.26-.65-7-8.75,6.42-27.37,12.24-41.56Z" fill="url(#g)"/>
    <path d="M1828.83,54.66c-20.39-10.3-43.12-8.45-61.49,1.35,21.05-9.84,44.76-6.57,65.85,7.22,36.61,23.94,32.54,64.27,29.28,81.23C1870.51,123.56,1875.14,78.55,1828.83,54.66Z" fill="#ff8fa8"/>
    <path d="M1783,172.62c-39.11-17.84-54.8-59.2-38-93.73,3.62-7.44,9.69-13.82,15.68-18.73-7.75,5.76-14.86,13.09-19.4,22.08-17.3,34.16-4.85,74.41,30.46,91.15a71.26,71.26,0,0,0,40.52,6.67C1803.68,179,1793.62,177.49,1783,172.62Z" fill="#cc1b5b"/>
    <path d="M1849.21,86.9a103.57,103.57,0,0,0-7.92-10.54c-.71-.84-1.43-1.67-2.21-2.46s-1.51-1.61-2.28-2.39c-1.62-1.52-3.19-3.06-4.92-4.44a65.33,65.33,0,0,0-11-7.44,58.8,58.8,0,0,0-12.28-4.89,57.23,57.23,0,0,0-26-.89c-8.47,1.76-16.72,5.12-23.24,10.87a.64.64,0,0,0-.08.87.64.64,0,0,0,.89.11v0c6.58-5.1,14.76-7.85,22.89-9A53.4,53.4,0,0,1,1807.33,59a56,56,0,0,1,20.53,12.61c1.5,1.36,2.86,2.87,4.25,4.35l2,2.33c.66.76,1.28,1.57,1.88,2.39a96.44,96.44,0,0,1,6.71,10.2l.08.14a1.45,1.45,0,0,0,.12.19,3.84,3.84,0,0,0,6.35-4.32Zm8.71,14.65a5.78,5.78,0,0,0-6.51-4.83,5.62,5.62,0,0,0-4.47,6.65,5.78,5.78,0,0,0,6.51,4.83A5.63,5.63,0,0,0,1857.92,101.55Z" fill="#fff"/>
  </g>
  <g>
    <path d="M1656,143.76a65.35,65.35,0,0,0,6.07-27.53c0-38-32.6-68.87-72.83-68.87s-72.83,30.84-72.83,68.87c0,36.19,29.53,65.84,67,68.63l0,0c25.31,2.3,51.91-11.67,60.67-.63-6.77-8.53,6.26-26.67,11.93-40.5Z" fill="url(#h)"/>
    <path d="M1616.94,58c-19.87-10-42-8.24-59.91,1.31,20.5-9.59,43.61-6.4,64.16,7,35.68,23.33,31.71,62.63,28.54,79.15C1657.56,125.11,1662.07,81.25,1616.94,58Z" fill="#ff8fa8"/>
    <path d="M1572.23,172.92c-38.1-17.38-53.4-57.7-37-91.34,3.53-7.25,9.45-13.47,15.28-18.25-7.55,5.6-14.47,12.75-18.9,21.51-16.86,33.29-4.73,72.52,29.68,88.83a69.39,69.39,0,0,0,39.49,6.49C1592.44,179.14,1582.63,177.66,1572.23,172.92Z" fill="#cc1b5b"/>
    <path d="M1636.8,89.38a99.79,99.79,0,0,0-7.72-10.27c-.68-.82-1.39-1.63-2.14-2.4s-1.48-1.56-2.23-2.33c-1.57-1.47-3.11-3-4.8-4.32a62.94,62.94,0,0,0-10.68-7.25,57.38,57.38,0,0,0-12-4.77,55.75,55.75,0,0,0-25.35-.86c-8.25,1.71-16.3,5-22.65,10.59a.62.62,0,0,0-.07.84.61.61,0,0,0,.86.11h0c6.4-5,14.37-7.65,22.3-8.77A52,52,0,0,1,1596,62.21a54.44,54.44,0,0,1,20,12.29c1.46,1.32,2.79,2.79,4.14,4.23l1.91,2.27c.65.74,1.25,1.53,1.83,2.33a93.23,93.23,0,0,1,6.54,10l.08.12a1.18,1.18,0,0,0,.11.19,3.74,3.74,0,1,0,6.19-4.21Zm8.49,14.28A5.64,5.64,0,0,0,1639,99a5.48,5.48,0,0,0-4.36,6.48,5.64,5.64,0,0,0,6.34,4.71A5.48,5.48,0,0,0,1645.29,103.66Z" fill="#fff"/>
  </g>
  <g>
    <path d="M1443.43,143.76a65.5,65.5,0,0,0,6.07-27.53c0-38-32.61-68.87-72.83-68.87s-72.83,30.84-72.83,68.87c0,36.19,29.52,65.84,67,68.63l0,0c25.31,2.3,51.92-11.67,60.68-.63-6.77-8.53,6.25-26.67,11.93-40.5Z" fill="url(#i)"/>
    <path d="M1404.34,58c-19.87-10-42-8.24-59.91,1.31,20.51-9.59,43.62-6.4,64.17,7,35.68,23.33,31.71,62.63,28.53,79.15C1445,125.11,1449.48,81.25,1404.34,58Z" fill="#ff8fa8"/>
    <path d="M1359.64,172.92c-38.11-17.38-53.4-57.7-37-91.34,3.54-7.25,9.45-13.47,15.29-18.25-7.56,5.6-14.48,12.75-18.91,21.51-16.86,33.29-4.72,72.52,29.68,88.83a69.4,69.4,0,0,0,39.49,6.49C1379.84,179.14,1370,177.66,1359.64,172.92Z" fill="#cc1b5b"/>
    <path d="M1424.2,89.38a99.69,99.69,0,0,0-7.71-10.27c-.69-.82-1.39-1.63-2.15-2.4s-1.47-1.56-2.23-2.33c-1.57-1.47-3.11-3-4.79-4.32a63,63,0,0,0-10.69-7.25,57.17,57.17,0,0,0-12-4.77,55.71,55.71,0,0,0-25.34-.86c-8.26,1.71-16.3,5-22.65,10.59a.62.62,0,0,0-.08.84.61.61,0,0,0,.86.11h0c6.41-5,14.38-7.65,22.3-8.77a52,52,0,0,1,23.62,2.27,54.28,54.28,0,0,1,20,12.29c1.47,1.32,2.79,2.79,4.14,4.23l1.91,2.27c.65.74,1.25,1.53,1.84,2.33a91.64,91.64,0,0,1,6.53,10l.08.12.12.19a3.74,3.74,0,1,0,6.18-4.21Zm8.49,14.28a5.62,5.62,0,0,0-6.34-4.71,5.48,5.48,0,0,0-4.36,6.48,5.64,5.64,0,0,0,6.34,4.71A5.48,5.48,0,0,0,1432.69,103.66Z" fill="#fff"/>
  </g>
  <g>
    <path d="M1230.45,145a63.31,63.31,0,0,0,5.88-26.67c0-36.84-31.58-66.71-70.54-66.71s-70.54,29.87-70.54,66.71c0,35,28.6,63.77,64.93,66.47l0,0c24.52,2.23,50.28-11.3,58.77-.61-6.56-8.26,6.06-25.84,11.56-39.23Z" fill="url(#j)"/>
    <path d="M1192.6,61.93c-19.24-9.72-40.7-8-58,1.28,19.86-9.29,42.25-6.2,62.15,6.81,34.56,22.6,30.71,60.66,27.64,76.67C1232,127,1236.31,84.48,1192.6,61.93Z" fill="#ff8fa8"/>
    <path d="M1149.3,173.28c-36.91-16.84-51.72-55.89-35.85-88.48,3.42-7,9.15-13,14.8-17.67-7.32,5.43-14,12.35-18.31,20.83-16.33,32.25-4.58,70.24,28.75,86a67.2,67.2,0,0,0,38.24,6.29C1168.87,179.3,1159.37,177.87,1149.3,173.28Z" fill="#cc1b5b"/>
    <path d="M1211.84,92.36a97.07,97.07,0,0,0-7.48-9.94c-.66-.8-1.34-1.58-2.08-2.33s-1.42-1.51-2.16-2.25c-1.52-1.43-3-2.89-4.64-4.19a61.64,61.64,0,0,0-10.35-7,55.45,55.45,0,0,0-11.6-4.61,53.77,53.77,0,0,0-24.54-.84c-8,1.66-15.79,4.83-21.94,10.26a.62.62,0,0,0-.08.82.6.6,0,0,0,.84.1h0c6.2-4.82,13.92-7.41,21.6-8.5a50.43,50.43,0,0,1,22.88,2.2,52.78,52.78,0,0,1,19.38,11.9c1.42,1.28,2.7,2.71,4,4.1l1.85,2.2c.63.72,1.21,1.49,1.78,2.26a92.37,92.37,0,0,1,6.33,9.63l.07.13.11.18a3.63,3.63,0,1,0,6-4.08Zm8.22,13.83a5.45,5.45,0,0,0-6.14-4.56,5.3,5.3,0,0,0-4.22,6.28,5.46,5.46,0,0,0,6.14,4.56A5.32,5.32,0,0,0,1220.06,106.19Z" fill="#fff"/>
  </g>
  <g>
    <path d="M1017.34,146.73a60.62,60.62,0,0,0,5.63-25.51C1023,86,992.75,57.4,955.48,57.4S888,86,888,121.22c0,33.53,27.36,61,62.12,63.6h0c23.45,2.14,48.11-10.81,56.23-.58-6.28-7.9,5.79-24.72,11.05-37.53Z" fill="url(#k)"/>
    <path d="M981.13,67.22c-18.42-9.3-38.94-7.63-55.53,1.22,19-8.89,40.42-5.93,59.47,6.52,33.06,21.62,29.38,58,26.44,73.36C1018.77,129.44,1023,88.8,981.13,67.22Z" fill="#ff8fa8"/>
    <path d="M939.7,173.75c-35.32-16.11-49.49-53.47-34.3-84.65,3.27-6.72,8.75-12.48,14.16-16.91-7,5.2-13.42,11.82-17.52,19.94-15.62,30.85-4.38,67.2,27.5,82.32a64.42,64.42,0,0,0,36.6,6C958.42,179.51,949.33,178.15,939.7,173.75Z" fill="#cc1b5b"/>
    <path d="M999.53,96.34a93.11,93.11,0,0,0-7.15-9.52c-.64-.76-1.29-1.51-2-2.22s-1.37-1.45-2.07-2.16c-1.45-1.37-2.88-2.76-4.44-4a58.87,58.87,0,0,0-9.9-6.72,53.11,53.11,0,0,0-11.1-4.42,51.67,51.67,0,0,0-23.48-.8c-7.65,1.59-15.1,4.63-21,9.82a.57.57,0,0,0,.73.88h0c5.93-4.61,13.32-7.09,20.66-8.13a48.2,48.2,0,0,1,21.89,2.1,50.57,50.57,0,0,1,18.54,11.39c1.36,1.23,2.59,2.59,3.84,3.92l1.77,2.11c.6.69,1.16,1.42,1.7,2.16a87.06,87.06,0,0,1,6.06,9.21l.07.12a1.74,1.74,0,0,0,.11.18,3.47,3.47,0,0,0,5.73-3.9Zm7.87,13.22a5.23,5.23,0,0,0-5.88-4.36,5.09,5.09,0,0,0-4,6,5.21,5.21,0,0,0,5.88,4.36A5.08,5.08,0,0,0,1007.4,109.56Z" fill="#fff"/>
  </g>
  <g>
    <path d="M804.12,148.85a57.13,57.13,0,0,0,5.31-24.07c0-33.26-28.51-60.22-63.68-60.22s-63.68,27-63.68,60.22c0,31.64,25.82,57.56,58.62,60h0c22.13,2,45.39-10.2,53.05-.55-5.92-7.46,5.47-23.32,10.43-35.41Z" fill="url(#l)"/>
    <path d="M770,73.83c-17.37-8.77-36.74-7.19-52.38,1.16,17.93-8.39,38.13-5.6,56.1,6.15,31.2,20.39,27.73,54.76,25,69.21C805.47,132.54,809.41,94.19,770,73.83Z" fill="#ff8fa8"/>
    <path d="M730.86,174.34c-33.32-15.2-46.69-50.44-32.36-79.86,3.09-6.34,8.26-11.78,13.36-16-6.6,4.91-12.66,11.16-16.53,18.81-14.74,29.11-4.13,63.41,25.95,77.67a60.72,60.72,0,0,0,34.53,5.68C748.53,179.78,740,178.49,730.86,174.34Z" fill="#cc1b5b"/>
    <path d="M787.32,101.3a89.09,89.09,0,0,0-6.75-9c-.6-.72-1.22-1.43-1.88-2.1s-1.29-1.37-2-2c-1.37-1.29-2.71-2.6-4.19-3.78a54.84,54.84,0,0,0-9.34-6.34,50.26,50.26,0,0,0-10.47-4.17,48.58,48.58,0,0,0-22.16-.75c-7.22,1.49-14.25,4.36-19.8,9.26a.54.54,0,0,0,.69.83h0c5.6-4.35,12.57-6.69,19.5-7.67a45.47,45.47,0,0,1,20.65,2,47.65,47.65,0,0,1,17.5,10.75c1.28,1.15,2.44,2.44,3.62,3.7l1.67,2c.57.65,1.09,1.34,1.6,2a81.54,81.54,0,0,1,5.72,8.7l.06.11.11.16a3.27,3.27,0,1,0,5.41-3.68Zm7.42,12.48a4.92,4.92,0,0,0-5.55-4.11,4.8,4.8,0,0,0-3.81,5.67,4.92,4.92,0,0,0,5.55,4.11A4.79,4.79,0,0,0,794.74,113.78Z" fill="#fff"/>
  </g>
  <g>
    <path d="M591,150.55a54.52,54.52,0,0,0,5.05-22.92c0-31.66-27.14-57.33-60.63-57.33S474.82,96,474.82,127.63c0,30.12,24.58,54.8,55.81,57.13l0,0c21.06,1.91,43.21-9.72,50.5-.53-5.63-7.1,5.21-22.2,9.94-33.71Z" fill="url(#m)"/>
    <path d="M558.49,79.12c-16.54-8.35-35-6.85-49.87,1.1,17.07-8,36.31-5.33,53.41,5.86,29.7,19.42,26.4,52.13,23.76,65.89C592.31,135,596.06,98.51,558.49,79.12Z" fill="#ff8fa8"/>
    <path d="M521.28,174.82c-31.73-14.47-44.46-48-30.82-76,2.94-6,7.87-11.21,12.73-15.19-6.29,4.67-12.05,10.62-15.74,17.9-14,27.72-3.93,60.37,24.71,74A57.79,57.79,0,0,0,545,180.85C538.09,180,529.93,178.77,521.28,174.82Z" fill="#cc1b5b"/>
    <path d="M575,105.28a83.38,83.38,0,0,0-6.43-8.55c-.57-.69-1.16-1.36-1.79-2s-1.22-1.3-1.85-1.94c-1.31-1.23-2.59-2.48-4-3.6a53.2,53.2,0,0,0-8.9-6,47.78,47.78,0,0,0-10-4,46.21,46.21,0,0,0-21.1-.72c-6.87,1.42-13.57,4.15-18.85,8.82a.5.5,0,0,0-.07.7.52.52,0,0,0,.72.09h0c5.33-4.15,12-6.37,18.56-7.3a43.26,43.26,0,0,1,19.66,1.88,45.41,45.41,0,0,1,16.66,10.23c1.22,1.1,2.32,2.33,3.44,3.53l1.6,1.89c.54.62,1,1.27,1.52,1.94a77.19,77.19,0,0,1,5.44,8.28l.07.11.1.15a3.11,3.11,0,0,0,5.15-3.5Zm7.06,11.88a4.69,4.69,0,0,0-5.28-3.92,4.56,4.56,0,0,0-3.62,5.4,4.68,4.68,0,0,0,5.27,3.92A4.57,4.57,0,0,0,582.09,117.16Z" fill="#fff"/>
  </g>
  <g>
    <path d="M378.12,151.61a52.79,52.79,0,0,0,4.89-22.2c0-30.67-26.29-55.53-58.72-55.53s-58.72,24.86-58.72,55.53c0,29.18,23.81,53.08,54.05,55.33l0,0c20.4,1.85,41.85-9.41,48.92-.51-5.46-6.87,5-21.51,9.62-32.65Z" fill="url(#n)"/>
    <path d="M346.61,82.43c-16-8.09-33.88-6.64-48.31,1.06,16.53-7.73,35.17-5.16,51.74,5.67C378.8,108,375.6,139.66,373,153,379.36,136.56,383,101.2,346.61,82.43Z" fill="#ff8fa8"/>
    <path d="M310.56,175.12c-30.72-14-43.05-46.52-29.84-73.65,2.85-5.85,7.61-10.86,12.32-14.72A50.46,50.46,0,0,0,277.8,104.1c-13.59,26.84-3.81,58.47,23.93,71.62A56,56,0,0,0,333.57,181C326.85,180.13,319,178.94,310.56,175.12Z" fill="#cc1b5b"/>
    <path d="M362.62,107.76a81.7,81.7,0,0,0-6.22-8.28c-.56-.66-1.12-1.32-1.73-1.93s-1.19-1.27-1.8-1.88c-1.27-1.19-2.5-2.4-3.87-3.49a51,51,0,0,0-8.61-5.85,46.91,46.91,0,0,0-9.65-3.84,44.88,44.88,0,0,0-20.44-.69c-6.65,1.37-13.14,4-18.26,8.54a.5.5,0,0,0,.64.76h0c5.16-4,11.59-6.17,18-7.07a41.83,41.83,0,0,1,19,1.83,43.87,43.87,0,0,1,16.14,9.91c1.18,1.06,2.25,2.25,3.34,3.41l1.54,1.83c.52.6,1,1.24,1.48,1.88a78,78,0,0,1,5.27,8l.06.1.09.15a3,3,0,1,0,5-3.39Zm6.85,11.51a4.55,4.55,0,0,0-5.12-3.79,4.41,4.41,0,0,0-3.51,5.22,4.55,4.55,0,0,0,5.11,3.8A4.43,4.43,0,0,0,369.47,119.27Z" fill="#fff"/>
  </g>
  <g>
    <path d="M165.33,152.24a51.68,51.68,0,0,0,4.8-21.76c0-30.07-25.77-54.45-57.57-54.45S55,100.41,55,130.48c0,28.61,23.34,52.05,53,54.25l0,0c20,1.82,41-9.22,48-.5-5.35-6.74,5-21.09,9.43-32Z" fill="url(#o)"/>
    <path d="M134.44,84.41c-15.71-7.93-33.22-6.5-47.37,1,16.21-7.58,34.48-5.06,50.73,5.57,28.21,18.44,25.07,49.51,22.56,62.58C166.55,137.49,170.12,102.82,134.44,84.41Z" fill="#ff8fa8"/>
    <path d="M99.09,175.29C69,161.55,56.88,129.68,69.83,103.08c2.79-5.73,7.47-10.65,12.08-14.43a49.57,49.57,0,0,0-14.94,17C53.64,132,63.23,163,90.43,175.89A54.9,54.9,0,0,0,121.65,181C115.07,180.21,107.31,179,99.09,175.29Z" fill="#cc1b5b"/>
    <path d="M150.14,109.25a80,80,0,0,0-6.1-8.12c-.55-.65-1.1-1.29-1.7-1.89s-1.16-1.24-1.76-1.85c-1.24-1.16-2.46-2.35-3.79-3.42a51,51,0,0,0-8.45-5.73,45.74,45.74,0,0,0-9.47-3.77,43.93,43.93,0,0,0-20-.68c-6.53,1.35-12.88,3.95-17.9,8.38a.47.47,0,0,0-.07.66.5.5,0,0,0,.69.09h0C86.63,89,92.94,86.86,99.2,86a41.06,41.06,0,0,1,18.67,1.8,42.92,42.92,0,0,1,15.82,9.71c1.16,1,2.21,2.21,3.28,3.35l1.51,1.79c.51.59,1,1.21,1.45,1.85a73.89,73.89,0,0,1,5.16,7.86l.06.1.1.15a3,3,0,0,0,4.89-3.33Zm6.71,11.29a4.46,4.46,0,0,0-5-3.73,4.35,4.35,0,0,0-3.45,5.13,4.45,4.45,0,0,0,5,3.72A4.34,4.34,0,0,0,156.85,120.54Z" fill="#fff"/>
  </g>
  <path d="M2381.08,67.56c-.91,2.86,1.52,3,3.72,1.58.86-.56,1.38-1.48.42-3.68C2383.78,62.13,2382,64.7,2381.08,67.56Zm24.37-17c6.16.72,3.44-6.43.38-8.77s-5.72-1.48-6.1,3S2402,50.2,2405.45,50.59ZM2375.17,64.9c4.53-4.15,1.09-6.58-.69-7s-3.94.91-5.23,3.72S2372.56,67.29,2375.17,64.9Zm22,1.36c6.73-.48,4-5.34.48-7.92s-4.29,1.76-4.82,4.2S2393.39,66.53,2397.19,66.26ZM2384.47,50c3.19-.24,6.67-.05,5-2.48s-9.11-3.77-10.88-1.14S2379.6,50.39,2384.47,50Zm-12.12,27.52c2-3.43-2.48-10-4.1-4.58S2371.14,79.62,2372.35,77.54ZM2513.86,113c0-39.83-34.14-72.12-76.26-72.12-2.19,0-4.36.11-6.5.28-3.44.67-1.74,3.19-6.33,6s-6-.06-7.25,3.12c-.8,2-1.72,2,.19,6.61s.32,6.24-2.48,9.23-5.41,6.61-9.92,5.72-8.08-2-10.18,1.4-5.65,13-10.11,13.1-8.07-1.27-11.25,0-7-.16-7.84,2a68.5,68.5,0,0,0-4.59,24.7c0,37.9,30.92,68.94,70.21,71.86,28.58,2.17,54.44-12.68,63-.64C2485.19,171.07,2513.86,146,2513.86,113Zm-138.79-10.76c-2.83.09-3.49-2.85-3.29-6s.77-4.66,2.63-5.5,6.93-1.07,7.21,2S2380.75,102.09,2375.07,102.27Zm49-36.57a2.58,2.58,0,0,1-2.9,1.81c-1.73-.19-1.34-1.28-.7-1.9a4.46,4.46,0,0,0,1-2.71,1.16,1.16,0,0,1,2.1-.63A2.73,2.73,0,0,1,2424.09,65.7Z" fill="url(#p)"/>
  <path d="M2585,62.53c3.41-3.12.83-5-.51-5.24s-3,.68-3.94,2.8S2583,64.33,2585,62.53ZM2579.28,75c2.84-1.73,1.93-8.71-1.72-5.65C2571.59,74.32,2577.55,76,2579.28,75Zm15.43-8.25c-1.12,1.12,0,1.77,1.36,1.64.54,0,1-.36,1.09-1.62C2597.29,64.81,2595.83,65.58,2594.71,66.7ZM2615.45,48c4.09-1.3,2.1-5-.51-7.13s-5.19,1.33-5.37,5C2609.48,47.56,2611.36,49.25,2615.45,48Zm-2.87,13.67c5.75-2.12,2.11-5.67-1.58-7s-3.3,2.62-3.14,4.87S2609.33,62.81,2612.58,61.62ZM2596.52,48.9c1.71.28,3.52.82,2.95-.67s-4.32-3.14-5.58-2S2593.92,48.48,2596.52,48.9Zm-15.1,30.39c-3.15,7.95,3.48,6.47,4.6,4.56C2587.86,80.7,2583.34,74.44,2581.42,79.29Zm145,33.74c0-39.83-34.15-72.12-76.27-72.12a13.13,13.13,0,0,0-6.49,1.33c-2.36,1.19-1.51,2.41-6.1,5.18s-4.73.52-6,3.7c-.8,2,1,3.52,2.94,8.1s-1.16,4.08-4,7.07-8.86,8.42-13.38,7.53-8.61-8.56-12.66-4,10,7.73-1.67,19.19c-3.17,3.12-6.15,1.3-11.62,1.12-3.46-.11-7.23-1.66-9.62.71-7.41,7.34-7.7,13.53-7.7,22.21,0,37.9,30.94,68.88,70.22,71.86,28.57,2.17,54.44-12.68,63-.64C2697.79,171.07,2726.46,146,2726.46,113Zm-141.05-.91c-4.3.13-5.31-4.34-5-9.19s1.16-7.09,4-8.37,10.54-1.63,11,3.06S2594.05,111.84,2585.41,112.12Zm15.44-15.93c-2.16.25-3.17-.77-2.06-2s2.74-1.67,3.91,0S2600.85,96.19,2600.85,96.19ZM2622,88.47c-3,2.85-9.68,5.15-12,3.3s-3.05-2.81-1.89-4.53c2.82-4.19,3.27-5.25,4.23-6.56s2-1.68,4.9-3.43,8.38-3.12,9.58,1.44S2625,85.62,2622,88.47Zm19.64-22.22c-1.05,2.32-2.5,2.74-4.11,2.56-2.44-.26-1.89-1.8-1-2.69s2.11-2.18,2.25-3.59.93-2.47,2.08-1.13S2642.71,63.94,2641.65,66.25Zm4.32-11.1c-3.86-.87-10.46-.33-9.61-2.57s1.62-2.83,4.47-4,9.68-2.52,9.58,1.36C2650.33,53.54,2649.19,55.88,2646,55.15Z" fill="url(#q)"/>
  <path d="M2795.05,60.58c2.14-1.95.52-3.1-.32-3.28s-1.86.43-2.46,1.75S2793.83,61.71,2795.05,60.58Zm-7.36,6.47c-2.53-.67-3,2.29-2.48,4.53s2.71.38,4.56-.72S2790.22,67.72,2787.69,67.05Zm151.36,46h0ZM2823.27,52.74c-3.05.14-2.1,2.62-1.34,4.77a3.25,3.25,0,0,0,5.54.86C2830.71,54.17,2826.32,52.6,2823.27,52.74Zm2.67-8.49c.82-.8.67-2.43-1.86-3.62s-3.2,1.43-2.91,3.62S2824.23,45.92,2825.94,44.25Zm-33.29,42.64c-.62,3.1,3.39,3.12,6.06,1,3-2.37.47-4.92-2-6.3S2793.27,83.79,2792.65,86.89Zm75.12-45.81c-7.64.59-9.95,1.42-12.85,4.28-4.89,4.84-7.92,3.8-8.58,6.36-1.4,5.41,4.7,6.24,4.32,9.41-.49,4.06-1.08,5.35-6.1,8.4s-15.2,9.41-19.08,6.23-2.8-8.65-6.42-8.77-8.33,2.22-3.82,5.46,10.24,4.14,8.59,10.18-6.3,13.23-12.21,12.91-14.25-3.67-18.38,0c-3.79,3.37-5.48,5-6,7.83a68.29,68.29,0,0,0-.7,9.65c0,37.74,30.68,68.7,69.74,71.83,28.58,2.17,54.92-12.65,63.44-.61-9.33-13.18,19.34-38.23,19.34-71.23C2939.05,74.78,2907.56,43.51,2867.77,41.08ZM2796,118.94c-5.29.17-6.54-5.34-6.15-11.3s1.43-8.73,4.91-10.31,13-2,13.5,3.77S2806.62,118.61,2796,118.94Zm18.31-16.69c-3.34.38-4.91-1.2-3.19-3.1s4.24-2.58,6,0S2814.3,102.25,2814.3,102.25Zm26.52-8.16c-4.2,4-13.45,7.16-16.64,4.58s-4.23-3.9-2.63-6.3c3.91-5.81,2.72-8.82,4.06-10.63s4.62-.81,8.63-3.24,11.64-4.34,13.31,2S2845,90.13,2840.82,94.09ZM2859,68.91c-1.29,4.63-3.86,5.82-6.91,6-4.62.22-4.06-2.81-2.63-4.72s3.29-4.67,3.15-7.35,1-4.86,3.53-2.71S2860.28,64.28,2859,68.91Zm4.68-14.42c-5-.4-13.12,1.45-12.45-1.51s1.52-3.82,4.86-5.82,11.64-4.86,12.21,0C2868.83,51.71,2867.82,54.83,2863.67,54.49Z" fill="url(#r)"/>
  <path d="M3009.7,86.17c1-.78.16-1.61-.65-2.06s-1.12.72-1.33,1.73S3008.83,86.86,3009.7,86.17Zm-2.54-26.36c1-.91.24-1.44-.15-1.53s-.86.2-1.14.82S3006.59,60.33,3007.16,59.81Zm-7.45,16.47c1.23,1.74,2.56-1.86,1.29-4.13s-3.71-.57-4.95,1.36S2998.49,74.55,2999.71,76.28Zm28.13-3.83c4.51,3.25,9.12,3,7.09,8.84s.72,6.11,5.13,0c5.17-7.18.79-4.76-2.63-7s-2.15-7.15-5.78-7.27S3023.32,69.21,3027.84,72.45ZM3151.65,113c0-37.07-29.58-67.58-67.63-71.63a26,26,0,0,1-5.84-1.37c-1.88-.66-5.95-1.19-5.78,1.94.4,7.63,9.15-1.84,8.49,5.2-.42,4.45-1.93,7.56-6.08,7.22-5-.4-10-.39-8.28-5,3.09-8-4.69-2.33-8.44,1.22-6,5.71,8,7.52,10.64,9.44s4.15,4.19,2.86,8.82-3.86,5.82-6.92,6c-4.62.22-3.44-2.48-2.62-4.72,1.95-5.28-2.11-6.24-8.87-2-17.15,10.84,5.11,4.7,7,12.32,1.55,6.37-2.53,9.63-6.72,13.59s-14.26,8.08-17.46,5.51-5.28-1.86-6-4.92c-.95-3.88.5-8.65-5.56-3.34-2.95,2.58-6,.34-6.44,2.75-.36,1.87,2.19,1.9,4.88,2.22s5.14.26,7,2.84-1.05,2.94-2.86,3.1c-2.19.18-3.28-.26-4.69,3.12s-1.29,13-13.62,13.57c-5.29.26-6.9-4-5-9.62,2.53-7.64,4.68-13.07,1.61-13.19s-7.24,7.14-7.65,9.35c-.44,3.16,1.6,4.27,1.6,7.55,0,37.74,30.67,68.7,69.74,71.83,28.57,2.17,54.91-12.65,63.44-.61C3123,171.07,3151.65,146,3151.65,113Zm-143.48,15.72a4.56,4.56,0,0,1-5.05-3.69c-.47-2.41.71-3.86,3.05-3.62s4.68,1.19,4.82,3.37A3.47,3.47,0,0,1,3008.17,128.74Zm13.57,10c-1.35,1-3.49,1.72-3.54-.27a2.66,2.66,0,0,1,2.13-2.94c1-.25,2.3-.47,2.61.57A2.32,2.32,0,0,1,3021.74,138.72Zm3.87-20.92c-2.56-1-4-2.3-2.48-4.69a59.72,59.72,0,0,1,4.45-6.08c1.59-2,4.36-4.3,7.09-3.24s6.13,1.76,4.71,4.8S3029.47,119.29,3025.61,117.8Zm16.68,18a2.34,2.34,0,0,1-2.89-1.52,3.05,3.05,0,0,1,2-3.7c1.56-.54,2.64.11,2.7,1.69S3043.73,135.54,3042.29,135.84Zm30.15-46.65c-.79,3.52-1.79,5-3.43,12.15-1.52,6.63-5.25,7.74-8.5,8.32-4.69.82-7.35-3.37-6.93-6.73s1.79-4.06,4.72-8.87c2.43-4,2.7-5.67,4.43-7.55,1.38-1.49,1.93-3.58,6-3.65S3073.32,85.33,3072.44,89.19Zm6.84,10.41a3.2,3.2,0,0,0-1.91,2.24c-.14.73-.08,3.07-1.44,3.09s-2.62-1.59-2.46-3.59.81-5.09,4-4.8S3080.52,99,3079.28,99.6Zm8.62-35.41c-2,1.65-2.58,2.35-6.23,2.44-4.06.09-6.63-1.31-6.28-4.85s1.32-4.24,4.3-5.1,2.34-3.87,3.69-5.25,6.13-2.74,9.84-1.06,4.85,3.68,3.22,5.38-2.52.88-4.66,2.87C3090.09,60.19,3090.17,62.37,3087.9,64.19Zm9.1,1c-1.53.42-3.58.81-4.08-.8s.19-3,1.77-4.15c2.08-1.54,5.39-2.8,5.52.31A4.14,4.14,0,0,1,3097,65.18Zm-59.71-21.63c.36-.34.29-1-.8-1.57s-1.39.62-1.26,1.57S3036.55,44.27,3037.29,43.55Zm-.89,13.3c3.55-2.37.61-4.7-1.76-5.37s-2.27,1.46-2.24,3.3A2.62,2.62,0,0,0,3036.4,56.85Z" fill="url(#s)"/>
  <path d="M3214,117.61c1.52-.59,1.36-2.62,2.61-7.86s-4.22-5.72-7.37-3.76,1.4,4.17,2.34,7.34S3212.6,118.15,3214,117.61Zm29.34-42.73c3.37,1,6.44,5.54,7.76,3.61,1.06-1.54-1.44-3-2.38-5.94s-2.94-4.91-7.18-3.89S3239.93,73.83,3243.3,74.88Zm-33.13,3.87c2-.73,1.38,2.37,3.77.79,1.45-1-.11-2.69-1.45-4.43s-2.77-.8-4.87,1.58S3208.15,79.48,3210.17,78.75Zm80.77-37c.75-.83.28-2.61-2.7-2.5s-2.27,2-.85,3.39S3289.21,43.64,3290.94,41.74ZM3244,56c1.92.23,4.44-2.86,2.8-4.05-2.31-1.68-4.67-1.83-4.19.07S3242.12,55.74,3244,56Zm-6.57,38.84c3.06.9,3.13,3.56,4.36,2.73,1.83-1.24-1-3.87-.5-7.56s-3.12-4.79-6.13-1.75S3234.39,93.89,3237.46,94.8ZM3364.26,113c0-32.77-23.11-60.41-54.76-69.18-8.76-2.47-12.94.25-14.5,3.22s-1.23,6.88-5.9,7.34-7.44-.08-8.81-2.06-5.52-5.53-9.67-2.66-3.24,6.58,2.3,7.16,11.58,2.49,12.24,7.83-2.28,12.72-10.41,11.13-4-7.09-10.24-7.85-5.74,5-1.61,7,12.92,2.75,11.49,8.78A21.1,21.1,0,0,1,3263,98.31c-6.62,3.44-11.45,5.71-16,2.63s-9.69,3.11-11.91,7.34-1.85,9.48-8.23,10.72-11.52-1.75-13.1,1.71c-1.19,2.59-.78,5.63-.07,8.58,7.33,30.05,34.52,52.9,67.79,55.57,28.58,2.17,54.92-12.65,63.44-.61C3335.59,171.07,3364.26,146,3364.26,113Zm-149.15,16.4c-.78-4,1.19-6.48,5.11-6.07s7.86,2,8.1,5.65-2,6.28-4.75,6.61A7.64,7.64,0,0,1,3215.11,129.42Zm22.88,9.24c-4,2.43-4.25,1.89-4.94,3.56a1.83,1.83,0,0,1-2.06,1.32c-3.7.06-5.63-1.46-4.08-3.63a16.25,16.25,0,0,0,3-6.16c.5-2.27,3.5-3.42,6.8-1.28S3242,136.22,3238,138.66Zm1.91-8.26c-4.3.07-7.12-1-6.36-5.36a89.59,89.59,0,0,1,2.89-11.46c1.14-3.83,3.79-8.83,8.39-8.9s10-1.05,9.69,4.19S3246.4,130.3,3239.9,130.4Zm13.35,10.75c-6.34.1-7.73-3.31-6.73-6.76s3.35-11.07,8-11.15,7.23,8.19,7.09,11.39S3259,141.06,3253.25,141.15Zm19.21-13.46c-8.55,1.5-13.41-6.15-12.65-12.28s1.49-8.78,8.62-16.19,7.78-8.75,8.44-12.39,3.16-7.92,10.58-8,8.8,5.68,4.74,11.66-4.44,7.22-4.21,22.05C3288.17,124.91,3278.4,126.64,3272.46,127.69Zm26.22-26.94c-2.38,1.14-3.14,1.82-3.4,3.21s1.8,6.7-.81,6.74-5-3-4.7-6.87,1.55-9.72,7.71-9.17S3301.05,99.61,3298.68,100.75Zm-3.26-26.94c-6.68.16-8.63-2.35-8.05-8.18s-.11-6.77,4.78-8.18,3.86-6.36,6.07-8.63,10.09-4.5,16.19-1.73,8,6,5.29,8.83-4.56.95-9,2.78-4.84,4.78-6,9S3301.42,73.67,3295.42,73.81Zm23.7-3.38c-4.7,3.33-12.12,6-12.28-1s4-9.32,7.38-10.18,8-1.65,9.05,2S3322.7,67.9,3319.12,70.43Z" fill="url(#t)"/>
  <path d="M3450.92,90.23c2.34-1.89-.08-4.31.51-8.44.55-3.86-5.57-3.22-7.28-.58C3440.76,86.46,3448.59,92.13,3450.92,90.23ZM3462,85.69c2.14,1.68,2.8,4.1,4.29,3.07,1.19-.82.1-.9.24-3.26s-.76-4.36-4.11-4.8S3459.88,84,3462,85.69Zm-35.07-6c1-.64-.07-1.79-1-2.94s-1.84-.54-3.24,1.05-.21,1.87,1.25,2.19S3425.37,80.74,3427,79.68Zm52.41-6.57c1.27-1.63.93-3.63-1.79-4.76s-3.63-.19-4.2,2.53S3476.12,77.27,3479.37,73.11Zm7.51-15.48c10.55,2.18,18.75-1.31,11.5-3.1-4.52-1.11-10.92-10-16.75-5.14C3477.74,52.66,3482.47,56.72,3486.88,57.63Zm9.36,14.95c-2.36,4.33-6.34,3.33-6.34,3.33-2.53-.44-2.26.21-4,6.75-2,7.62,2.53,10.62,3.8,4.17S3496,82,3498.1,79,3498.59,68.25,3496.24,72.58Zm-68.33,36.75c.73-3-2.45-3.33-4.28-2.19s-.56,2.76,0,4.6,2,2.47,2.78,2.16S3427.19,112.37,3427.91,109.33Zm29.86-58.55c2.17-1.16,2.56-6.24,0-6.29-3.66-.07-6.24,1.49-4.35,3.13S3455.6,51.94,3457.77,50.78ZM3576.86,113a69.64,69.64,0,0,0-19.61-48.26c-9.32-9.77-19.61-21.92-28.57-19.58s5.66,8.57-6.63,16.9c-2.79,1.89-3.08,3.38-7.75,3.83s-6.07-7.92-9.66-2.79c-10.58,15.12,11.19,25.3,3.7,34.57s-11.66-15.53-17.83-5.28c-5,8.23,5.12,5.31,2.94,14.15-3.55,14.35-25.9,12.11-19.62,1.52,6.63-11.17-1.63-4.44-7.07-5.41-5.75-1-12.91-10.53-15.84-1.51-2.08,6.42,25.78,7.17,8.12,23.42-5.34,4.92-6.28.08-6.91-6-.45-4.33-3.35-5.65-8.39-2.52s-3.73,5.06,1.58,8.69-1.72,10.88-6.13,11.75c-6.36,1.24-6.41-15-10.8-14.44s-1.27,10.42-.76,12c8.9,27.68,34.95,48.29,66.45,50.82,28.57,2.17,54.91-12.65,63.44-.61C3548.19,171.07,3576.86,146,3576.86,113Zm-130.51,29c1.39-2.66,2.82-5.05,2.92-8.19s2.62-4.92,4.49-2.67,6.13,5.73,6.1,9.3-4.25,7.35-9.43,7.32C3445.56,147.76,3445,144.69,3446.35,142Zm24.86,14.42c-.89,2.94-4.45,5.15-8.22,5.37-4.07.24-6.83.26-7.18-2.06s.11-2.33,2.81-3.15,3.56-3.63,5.39-3.8,1.85.91,3.34,1.07S3472.1,153.51,3471.21,156.45Zm9.12-28.69c-3.34,1.43-5.34,2.78-6.09,5.56a4.21,4.21,0,0,1-4.1,3.24c-2.88,0-6.32-1.41-5.6-4.3s2.69-3.62,3.1-6.15-1.56-6.76,4.85-6.14,9.42,2.06,12.38,2.44,3.79,3,2.15,4.76S3483.07,126.59,3480.33,127.76Zm4.77,14c-2.37.12-3.37-1.23-2.66-2.66a5.82,5.82,0,0,1,5.24-3C3490,136.35,3487.72,141.66,3485.1,141.8ZM3526,103.15c-2.54,6.54-4.5,6.53-6.09,8s-2.59,5.59-6,5.53c-4.69-.08-3.42-4-3.51-5.89s-1.43-5.72-.37-8,6.78-8.22,11.11-8S3528.52,96.61,3526,103.15Zm12-28c-4.31,2.43-13,3.39-14.7-.15s.81-4.41,3.78-7.28,2.59-6.19,6.37-7.84,8.89-2.92,10.89,3.81S3541.2,73.33,3537.94,75.16Z" fill="url(#u)"/>
  <path d="M3680.82,94.43a2.66,2.66,0,0,0-2.65-3.59c-2.57,0-1.06,1.62,0,3.57S3679.83,96.19,3680.82,94.43Zm16.32-43.05c1.55-3.51.43-7.53-3.77-7.77s-2.6,4-2.35,7.73S3695.36,55.4,3697.14,51.38Zm-35.48,27.33c2-5.14-5.54-13.39-8.71-10.74s-2.44,8-1.31,10.1S3660.06,82.73,3661.66,78.71Zm4.72-35.29c2,.46,3.7,3.7,4.56,0,1-4.12-3.27-7.34-6.52-5.07S3664.38,43,3666.38,43.42Zm21.45,30c.66-.85.49-1.9-.94-2.49s-1.91-.1-2.2,1.33S3686.12,75.64,3687.83,73.45Zm33.22-3.21c2.41-4.18-1.1-7.16-4.44-7.56s-1,3.14,0,4.67S3719.16,73.52,3721.05,70.24Zm29.21-18.5a7.08,7.08,0,0,0-9.48-7.4c-5.55,1.68-.53,6.67,1.84,9.07S3749.91,57.27,3750.26,51.74Zm-42.61,30.81c.59-.55,2.07-2.37.46-3.71s-3.72-.12-3.64,2.31S3706.29,83.84,3707.65,82.55Zm1.11,27.29c3.72,0,4.14-5.31,5.21-9.45s0-12.45-9-9.56-.91,6.67.79,11.07S3704.37,109.81,3708.76,109.84Zm-43.34-9.64c-4.43,5.69,2.63,5.65,3.85,8.8s3.83,6.36,7,2.53c2.31-2.75-1.49-4.11-2.9-7.84S3669.85,94.51,3665.42,100.2Zm124,12.82a69.5,69.5,0,0,0-18.12-46.65c-6-6.5-7.61-13.83-11.7-10.65-2.37,1.83.85,5.88-2.69,9.5-4.77,4.88-6.93,8.18-17.81,9.34S3727,72.29,3723.38,77s-3.67,7.61-.9,7.34,7.56-4.81,10.88-2.12,4.92,6,.88,11.55-10.17,8.8-10.1,12.62,3,13.85-3,16.76-9.56,3.47-19.75,1.49-15.52-4.2-18.79-.89.64,4.11.81,7.73-.55,11.26-6.28,11.22-4.23-8.9-9-10.65-8.21,1.56-7.57,5.67.43,6.87-3.4,8.18-6.63-4.92-10.45-1c-1.2,1.16,1.1,5.33,2.49,7.4,12.49,18.14,33.38,30.63,57.44,32.56,28.58,2.17,54.92-12.65,63.44-.61C3760.79,171.07,3789.46,146,3789.46,113Zm-130.3,38.5c1.69-3.23,3.43-6.13,3.55-9.94s3.19-6,5.46-3.25,7.44,7,7.41,11.3-5.16,8.93-11.46,8.89C3658.21,158.48,3657.47,154.76,3659.16,151.52Zm30.9,7.18c-1.36,4.52-6.83,7.92-12.64,8.26-6.26.36-10.5.4-11.05-3.18s.17-3.57,4.33-4.83,5.47-5.59,8.29-5.86,2.85,1.4,5.14,1.66S3691.43,154.18,3690.06,158.7Zm14.84-7.3c-4.05.24-5.76-2.28-4.55-4.94s5-5.93,9-5.57S3709.38,151.15,3704.9,151.4ZM3717.2,138c-2.59,2.8-6.23-.92-10.55.93-5.26,2.25-8.42,4.38-9.6,8.76a6.64,6.64,0,0,1-6.47,5.11c-4.53,0-9.95-2.22-8.82-6.79s4.23-5.69,4.88-9.69-2.46-10.66,7.65-9.68,14.86,3.25,19.53,3.85S3719.79,135.19,3717.2,138ZM3750,106.93c-3.69,9.51-6.56,9.49-8.86,11.67s-3.77,8.13-8.73,8.05c-6.82-.11-5-5.76-5.1-8.57s-2.09-8.32-.54-11.6,9.86-12,16.15-11.62S3753.68,97.41,3750,106.93Zm18-25.4c-1.44,8.48-8.6,8.91-13.18,9.16-6.05.34-16.1-3.3-16.07-8.12s3.27-4.41,8.1-5.95,6.19-5.4,11.25-5.17S3769.44,73.05,3768,81.53Zm-125.48,48.66c-3.44-.31-5.26,2-4.33,5.21s4.27,4.44,6.76,1.56C3647.26,134.29,3646,130.5,3642.52,130.19Zm-2.33-23.1c-1.61-1.06-4.19-.79-4.21,2.26s2.44,3.24,4.67,1.27A2.21,2.21,0,0,0,3640.19,107.09Z" fill="url(#v)"/>
  <path d="M3903.5,70.84c1.16-1.48.85-3.31-1.62-4.33s-3.31-.17-3.82,2.3S3900.55,74.63,3903.5,70.84Zm-5.71,27.55c.71-1.65-.41-4.82-3-5.81s-4.43,2.92-3.92,4.59S3897.05,100.1,3897.79,98.39Zm20.31,29c5.44-1.33-1-3.12-6.88-4.47s-7.49,1.15-7.77,3S3911.67,129,3918.1,127.42Zm85.39-14.4c0-17.8-5.29-31.88-16.81-43.42-7.86-7.86-10.73-6.25-13.25-4.47-10.55,7.45,5.32,3.14,9.84,12.18,4.32,8.63-11.47-1.85-21.91,10.69-7,8.42-5.85,11.84-9.27,17.75-18.19,31.35-25.45-7.17-34-.24-8.3,6.7,21.42,21.57,0,32.55-5.88,3-7.88-1.72-11.15,1.6s-13.1,8.93-12.72,1.21c.26-5.24-12.85-9.08-11.86-2.28.82,5.67.55,7.4-1.13,12.18-2.71,7.75,2.31,2.26,5,13.79,2.88,12.31,9,19.8,33.06,21.73,28.58,2.17,54.92-14.08,63.44-2C3973.38,171.07,4003.49,146,4003.49,113Zm-5.43,2.59c-.75,3.34-1.9,7.38-5.27,7.54-4,.18-6.13-3.68-5.95-6s4.33-10.87,7.77-11S3998.81,112.27,3998.06,115.61Zm-16.41-30.28c2.08-1.88,3.52-1.87,6.42-.29s6.39,4.58,7.32,8.83,1.14,9.77-2.67,9.94c-3,.14-5.12-3.23-5.23-5s1-5.55-1.48-7.39S3979.56,87.2,3981.65,85.33Zm-84.35,62.61c2.49-3.11,5.72-.07,6.95,2.06s2.54,4,.71,6.31-3.46,2-5.71-.1S3894.81,151.06,3897.3,147.94Zm7.91,20c-2.33,2.87-10.18,7.63-13.3,4.68s-3-5-1-8.93-2.55-10.72-1.62-12.92,4-2.21,5.55.71.57,6,2.33,7.92a6.5,6.5,0,0,0,5.44,2.14C3904.52,161.57,3908.27,164.19,3905.21,168Zm10.06-19.34c-4.42,1.08-4.53-1.09-7.74-.85s-6-4.29-1.47-4.15c7,.22,12.26-4.38,13.17-.29S3917.3,148.13,3915.27,148.62Zm12.49-1.3c-4,.18-5.57-1.92-4.93-4.12s4.09-4.15,5.14-7.85,1.31-8.65,4.9-8.81,6.83,1.62,7.05,6.44S3933.23,147.07,3927.76,147.32Zm19.41-10.8c-2.3.49-3.74-.38-2.27-2.53s3-3.09,4.77-1.58S3949.26,136.07,3947.17,136.52Zm8.21-13.21c-2.6,1.64-1.21,3.41-4.5,4.65-5.15,1.93-9.39,1.24-10.34-1.16s-1.06-3.48,1.07-4.55,5.37-1.92,7.43-4.93,7.89-3.11,9.11-.31S3958,121.67,3955.38,123.31Zm9.73,6.51c-2.11,1.76-4.78,2.08-5.5.8s.17-4.75,1.95-5.4,3-.47,4,1A2.58,2.58,0,0,1,3965.11,129.82Zm1.42-22.44c-5,6.35-7,5.9-7,5.9-3.32.15-5.74-2-5-4.93s1.9-4.15,3.13-6.93,1.84-6.1,6.91-6.27S3971.49,101,3966.53,107.38Zm-58.27-57.2c.78-1.78.22-3.82-1.91-3.94s-1.32,2-1.19,3.92S3907.36,52.21,3908.26,50.18Zm-47.34,61.24c-2-1.32-5.24-1-5.26,2.83s3,4,5.83,1.59A2.77,2.77,0,0,0,3860.92,111.42Zm18.39-69c1,.23,1.88,1.87,2.32,0a2.25,2.25,0,0,0-3.32-2.58C3876.66,41,3878.29,42.19,3879.31,42.43Zm8.09,77.44c.9,2.34,3.59,4.08,6,1.23,1.71-2,0-4.25-1-7s-3.77-5.61-7-1.39S3886.49,117.52,3887.4,119.87Zm53.79-11.12c3.49-1.08,8.37-8.76,8.73-11.63s-1.83-1.67-5.61,2.33S3937,110.06,3941.19,108.75Zm-22.06-25.93c.39-.37,1.35-1.55.3-2.43s-2.42-.07-2.37,1.51S3918.24,83.66,3919.13,82.82Zm44.38-31a6.11,6.11,0,0,0-4.14-9.52c-4.9-1-3.15,4.84-2.34,7.64S3961,55.87,3963.51,51.82Zm-7.39,25.71c3.39-1.39,3.31-.51,3.38.24.48,5,7.1-.51,5.3-1.58-1.13-.67-1.82-.53-1.08-1.89s3.08-1.61,2.83-3.4-1.75-.59-3.46-.19c-2.72.65-1.46-1.41-4.63,0s-1.31,2.11-3,3.52S3952.73,78.92,3956.12,77.53Zm-27.71,29c2.67,0,1.51-4.06,2.28-7s1.22-9.34-5-6.61c-4.52,2-2.9,5.7-1.69,8.86S3925.26,106.5,3928.41,106.52Zm2.47-31.92c1.34-.48,4.14-1.86,2.56-4.35-2-3.17-5.15-.74-6.52,2.15S3929.55,75.07,3930.88,74.6Zm-83,58c-3-.28-4.67,1.74-3.84,4.63s3.79,3.94,6,1.38C3852.08,136.27,3850.92,132.9,3847.87,132.63Zm29.59,32.71c-1.67,2.44.2,3.64,2.61,4.28s3.94,2,4.54,0C3886.08,164.54,3879.12,162.9,3877.46,165.34Zm-17.13-10.12c2.65,9.68,6.43,4.88,7.75.66.51-1.6-.32-3-2.13-6.35S3857.67,145.53,3860.33,155.22ZM3867,70.68c-1.77,1.49-1.37,4.49-.73,5.67s4.72,2.61,5.61.35C3873.06,73.83,3868.82,69.2,3867,70.68Z" fill="url(#w)"/>
  <path d="M4080.45,115.81c-2.15-.09-3.55.64-4.13,3.77s3.19,2.86,4.69,1.22S4082.6,115.9,4080.45,115.81Zm38.11-48.45c1.2-1.33-.58-4.37-3.34-3.1s-2.28,2.35-1.26,3.68S4116.32,69.83,4118.56,67.36Zm13.63,64.21c2.85-2.61-.51-6.13-3.59-8.79s-3.91,2.26-4.05,5.89S4128.84,134.66,4132.19,131.57Zm-23.72-8.34c1.86-4.34-2.4-5.57-5.87-5.41s-3.27,2.82-2.17,4.87S4106.38,128.11,4108.47,123.23Zm-57,14.73a2.47,2.47,0,0,0,4.47,1.77s1.36-.95-.56-4.06S4051.75,135.4,4051.48,138Zm18.32,24.4c-1.62,5.51,3.82,4,6.78,2.13,1.12-.7,1-1.62.69-3.71S4071.41,156.85,4069.8,162.36Zm43.62-60.69c.87-2-.5-5.85-3.61-7s-5.38,3.53-4.76,5.56S4112.52,103.75,4113.42,101.67Zm57.52-28.84c2.74,3.55,1.44,4.32,1.61,9.14s6.47,7,9.44,3.92-1.57-6.14-4.38-8.16-6-5.84-6.5-9.59-3.31-6.87-5.57-1.9S4168.2,69.27,4170.94,72.83Zm22.58,0c3.19-3.53-1.92-5.64-3.82-6.51s-3-.58-2.3,3S4191.42,75.15,4193.52,72.81ZM4165.68,114c3.7-1.75,1.79-6.91-1-8.31s-4.49-.09-5.26,3S4161.23,116.12,4165.68,114Zm-21.9-13.53c-.18,3.49,2.39,4.92,4.95,2.78,1.33-1.11-.28-1.89-1-3.15s1.16-3.06-.58-4.51S4144,97,4143.78,100.5Zm1.6-23.76c3.15-2.1.33-5.45-2.53-5.42a3.6,3.6,0,0,0-3.7,4.81C4139.85,78.84,4141.89,79.08,4145.38,76.74Zm32.74-28c3-3.05.32-7.75-1.85-8.18s-1.76,2.28-2.34,5.36S4174.62,52.37,4178.12,48.78Zm38,47.82c-3.12-9.46-9.56-12.68-24.17-10.54-15.05,2.2-14.27,23.94-17.08,29.28s-6.74,11.58-18.88,9.13-14.49-5.9-15.29-10.58-3.64-12.57-8.5-9-1.84,8.61,4.26,12.66a20.78,20.78,0,0,1,9.21,20.72c-1.44,9.17-6.21,10.66-9.3,11.24s-6.21,2.06-8.23-.39-4.74-3.42-6.17.15-2.72,6-5.31,3.61-2.28-5.5-5.26-8-6.89-1.72-7,1.85,3.32,4.43,6.7,6.06,8.05,6.32,5.47,9.75-6,2.37-8.24,5-4.37,7.45,2.13,12,11.91,7.55,21.42,8.31c28.57,2.17,54.91-15.65,63.44-3.61C4186,171.07,4217.65,146,4217.65,113,4217.67,107.83,4217.73,101.64,4216.16,96.6Zm-96.06,84c-3.69.14-12.44-2.64-12.28-6.93s1.84-5.54,6-6.67,6.39-9,8.66-9.73,4.27,1.53,3.12,4.64-4.16,4.39-4.44,7a6.5,6.5,0,0,0,2,5.5C4124.46,175.91,4125,180.46,4120.1,180.64ZM4133,168.09c-.79,2.33-1.34,4.55-4.28,4.68s-3.76-1.3-3.68-4.36.95-6.73,4.94-6.91S4133.78,165.75,4133,168.09Zm1.46-9.88c-3.58.24-3.37-1.47-5.9-1.71s-4.08-4.15-.58-3.43c5.44,1.12,10.13-1.75,10.28,1.55S4136.09,158.1,4134.44,158.21Zm13.53-2.88c-4.62.21-6.46-2.22-5.71-4.77s4.74-4.82,5.95-9.11,1.53-10,5.69-10.22,7.92,1.88,8.17,7.47S4154.32,155.05,4148,155.33Zm19.85-8.73c-3,.66-4.91-.49-3-3.31s4-4.06,6.27-2.08S4170.56,146,4167.82,146.6Zm9.83-13.24c-3,.71-2.25,2.84-5.77,2.94-5.49.17-9.28-1.86-9.4-4.45s.13-3.63,2.48-3.95,5.72-.08,8.64-2.26,8.46-.38,8.71,2.66S4180.64,132.66,4177.65,133.36Zm-.1-19.73c.88-3.67,2.39-5.21,3.92-8.69s2.32-7.65,8.67-7.87,8.74,7.37,2.52,15.35-8.79,7.4-8.79,7.4C4179.71,120,4176.67,117.3,4177.55,113.63Zm13.81,24.19c-2.77,2.3-6.27,2.72-7.21,1s.22-6.23,2.56-7.09,3.92-.61,5.23,1.35A3.4,3.4,0,0,1,4191.36,137.82Zm10-18.32c-.75,3.34-1.9,7.38-5.27,7.53-4,.19-6.13-3.67-5.95-6s4.33-10.87,7.77-11S4202.11,116.16,4201.36,119.5Zm8.61-.39c-4.45.2-7.55-4.76-7.71-7.45s1.47-8.19-2.18-10.9-9.51-6.15-6.44-8.91,5.2-2.75,9.47-.43,9.44,6.76,10.8,13S4215.6,118.86,4210,119.11Zm-111.64,16.38c-3.51.44-2.22,2.53-.72,4.16s3.86,5,5.36,2.31C4105.75,137,4101.84,135,4098.33,135.49Zm-5.18,27.11c-2.15,3.15,1.1,3.19,4.31,3.43s4.15,4.71,4.92,2.07C4104.28,161.57,4095.3,159.45,4093.15,162.6Z" fill="url(#x)"/>
  <path d="M4326.65,99.29c.67-1.54-.39-4.52-2.79-5.44s-4.15,2.73-3.67,4.29S4326,100.89,4326.65,99.29Zm18,30.42c2.69-1.22,1.1-4.58-.5-7.25s-3.38.71-4.35,3.32S4341.51,131.14,4344.68,129.71Zm-54.09-8.9c-3-.13-4.92.88-5.72,5.22s4.41,4,6.49,1.69C4293.63,125.23,4293.57,120.94,4290.59,120.81Zm26.92,18.61c1.88-3.38-.76-4.68-3.13-4.38s-1.5,1.71-.49,2.81S4316.5,141.23,4317.51,139.42Zm41.89-62.21c2.23-1.48.24-3.85-1.78-3.82a2.53,2.53,0,0,0-2.61,3.39C4355.5,78.69,4356.94,78.86,4359.4,77.21Zm-59,82.77c-2,3.18,1.41,2.94,4.84,2.89s4.76,4.11,5.37,1.54C4312.1,158.05,4302.41,156.81,4300.37,160Zm89.38-74.6c.67-1.54-.38-4.52-2.79-5.44s-4.15,2.73-3.67,4.29S4389.06,87,4389.75,85.38Zm24.23,22c-9.81-2.36-14.19,5.69-15.94,11.7s13.38,10.86,4.07,11.95-6.69,6.16-18.25,12.21-3.63-20.24-10.43-17.73-1.89,25.18-16,25.18c-5.36,0-8.4,5.52-14-.23s-17.43-9.55-19.34-2.88,15.57,5.37,7.92,16.47c-3.19,4.62-17.6-3.23-15.8,7.83s16.13,16.75,28.3,17.5c28.58,2.17,54.92-17.21,63.44-5.17-8.58-12.12,18.86-34.29,23.31-63.46C4435.23,96.25,4422.29,109.42,4414,107.42Zm-70.89,47.19c3.12-1.46,7.33-.42,4.59,2.7-3,3.46-5.35,4.31-7,2.68S4340,156.07,4343.09,154.61Zm-9.27,12.27c.79-4.33,2.73-5.34,5.71-5.21s3.05,4.42.78,6.91C4338.23,170.85,4333,171.22,4333.82,166.88Zm-13.09,7.79c-2.62-6.31,4.31-6.16,4.31-6.16,4.69-.09,7.19-1,8,3.66s-3.78,5.5-3.4,8.19S4323.36,181,4320.73,174.67Zm25,12.21c-7.94.33-12.06-1.2-12.62-4.52s3.26-4.6,9.16-2.86S4352.83,186.58,4345.68,186.88Zm.84-24.74c1.83-3,7.37-9.35,14.72-9.1s6.22,6.38-4.8,12.35C4349.42,169.19,4344.7,165.19,4346.52,162.14Zm20.17,5.42c-4.29,2.32-7.18-.13-6.07-2s4.51-5.73,9-5.58S4373.45,163.9,4366.69,167.56Zm6.29-13.18c-5,1.72-9.3-1.67-8.26-3.55a9.72,9.72,0,0,1,10.43-4.38C4381,147.58,4380.9,151.69,4373,154.38Zm18.41,11.24c-4.66-1.81-6-4-4.05-6.46s4.87-2.43,7,.33S4395.59,167.26,4391.39,165.62Zm2-12.6c-7.6,2.43-12.8-1.17-9.91-3.25,6-4.29,11.17-14.35,18.52-14.1S4411.73,147.17,4393.37,153ZM4413,134.77c-2.08,2.27-7.29,2.64-6.49-1.7s2.73-5.34,5.71-5.21S4415.28,132.28,4413,134.77Zm-3.14-11c-4.94,2.56-12-.53-6.72-7.67s8.82-7.56,12.55-5.18S4415.26,121,4409.87,123.79Zm13.71.16c-3.71-.64-5.56-3-4.58-7.36s6.41-8.07,9.17-2.84C4431.5,120.05,4427.29,124.58,4423.58,124ZM4406,99.17c9.63,5,1.65-7.91,6-9.31,2.31-.75,7.64-4,1.36-4.44-17.4-1.19-20.81,8.54-22,14.56C4389.87,107.67,4395.68,93.79,4406,99.17Zm25.85-2.92c-3.1,1.09-4.26,3.58-2.23,7.45s3.29,1.73,5.44-2.77C4436.93,97,4434.92,95.15,4431.83,96.25Zm-44.55-27.53c.09-2.88-2.31-4.6-3.12-3.91s-.52,7,.52,7.65S4387.19,71.6,4387.28,68.72Zm-11.81,44.12c2.64-1.25,1.28-4.93-.71-5.94s-3.21-.06-3.76,2.18S4372.29,114.34,4375.47,112.84Z" fill="url(#y)"/>
</svg>
