<svg xmlns="http://www.w3.org/2000/svg" xmlns:xlink="http://www.w3.org/1999/xlink" xml:space="preserve">
	<!--
	<defs>
		<radialGradient id="radial-gradient" cx="139.41" cy="48.26" r="26.98" gradientTransform="translate(31.01 -85.53) rotate(26.1)" gradientUnits="userSpaceOnUse">
			<stop offset="0" stop-color="#ff7a99"/>
			<stop offset="0.22" stop-color="#ff7697"/>
			<stop offset="0.43" stop-color="#ff6b91"/>
			<stop offset="0.63" stop-color="#ff5886"/>
			<stop offset="0.84" stop-color="#ff3d78"/>
			<stop offset="1" stop-color="#ff2169"/>
		</radialGradient>
	</defs>
	-->

	<symbol id="logo" viewBox="0 0 180 60">
		<title>DigitPop</title>
		<g>
			<path fill="#ff2169" d="M148.3,18.08C143.51,9,132.52,6,123.39,10.77s-13,15.51-8.16,24.64c8.83,16.85,25,7.41,28.05,13.3C140.19,42.82,157.49,35.61,148.3,18.08Z"/>
			<path fill="#ff8fa8" d="M139.51,11.29a16.91,16.91,0,0,0-16.13.37c5.52-2.67,11.74-1.78,17.27,1.95,9.6,6.49,8.54,17.42,7.68,22C150.44,30,151.65,17.77,139.51,11.29Z"/>
			<path fill="#cc1b5b" d="M127.48,43.26c-10.26-4.84-14.37-16-10-25.4a15.71,15.71,0,0,1,4.11-5.08,17.3,17.3,0,0,0-5.09,6c-4.54,9.26-1.27,20.17,8,24.71a18.18,18.18,0,0,0,10.63,1.8A24.26,24.26,0,0,1,127.48,43.26Z"/>
			<path fill="#ffffff" d="M145.15,19.88a27.25,27.25,0,0,0-2.1-2.83c-.36-.46-.79-.88-1.19-1.31s-.84-.83-1.3-1.2a16.23,16.23,0,0,0-6.21-3.37,14.65,14.65,0,0,0-7-.21,13,13,0,0,0-6.13,3,.22.22,0,0,0,0,.3.21.21,0,0,0,.31,0h0a12.3,12.3,0,0,1,6-2.36,13.35,13.35,0,0,1,6.31.71,14.42,14.42,0,0,1,5.25,3.45c.38.36.72.77,1.07,1.16s.67.82,1,1.27a25.09,25.09,0,0,1,1.69,2.71l0,.05.06.09a1.35,1.35,0,1,0,2.23-1.51Zm2,4.12A1.46,1.46,0,1,0,146,25.8,1.52,1.52,0,0,0,147.14,24Z"/>
		</g>
		<path fill="#ffffff" d="M14.41,12.22c-.66-1.77-2.3-2.44-4.52-2.44H6.61C2.26,9.78.13,11.7.13,15.61V39.83c0,3.91,2.13,5.83,6.48,5.83H9.89c2.22,0,3.86-.66,4.52-2.44v2.44h5.66V0H14.41Zm0,26.43c0,2-.82,2.65-2.79,2.65H8.33c-2.13,0-2.54-.37-2.54-2.28V16.43c0-1.92.41-2.29,2.54-2.29h3.29c2,0,2.79.66,2.79,2.66Zm11.32,7h5.66V9.86H25.73ZM51.32,12.29c-.65-1.77-2.29-2.43-4.51-2.43H43.53c-4.35,0-6.48,1.92-6.48,5.83V39.83c0,3.91,2.13,5.83,6.48,5.83h3.28c2.22,0,3.86-.66,4.51-2.44V53.36c0,1.92-.41,2.28-2.54,2.28H38.28V60H50.5C54.85,60,57,58.08,57,54.17V9.86H51.32Zm0,26.36c0,2-.82,2.65-2.79,2.65H45.25c-2.13,0-2.54-.37-2.54-2.28V16.5c0-1.92.41-2.29,2.54-2.29h3.28c2,0,2.79.67,2.79,2.66Zm11.32,7H68.3V9.86H62.64ZM85.32,14.21V9.86H79.66V0H74V9.86H70.39v4.35H74V39.83c0,3.91,2.13,5.83,6.48,5.83h4.84V40.93H82.2c-2.13,0-2.54-.36-2.54-2.28V14.21Z"/>
		<path fill="#ff2169" d="M108.79,9.83H91.4a3,3,0,0,0-3,3V42.53a3,3,0,1,0,5.92,0V15.75h14.43a4,4,0,0,1,3,1.4,3.79,3.79,0,0,1,1.36,3,4,4,0,0,1-1.33,3.13,4.29,4.29,0,0,1-3.32,1.36l-4.89.06a3,3,0,0,0,0,5.92h0l4.88-.06A10.19,10.19,0,0,0,116,27.49a9.86,9.86,0,0,0,3.1-7.35,9.71,9.71,0,0,0-3.15-7.24A10,10,0,0,0,108.79,9.83Zm68.06,3.07a10,10,0,0,0-7.13-3.07H152.33a3,3,0,0,0-3,3V42.53a3,3,0,1,0,5.91,0V15.75h14.43a4.05,4.05,0,0,1,3,1.4,3.82,3.82,0,0,1,1.35,3,4,4,0,0,1-1.33,3.13,4.24,4.24,0,0,1-3.28,1.36h0l-4.9.06a3,3,0,0,0,0,5.92h0l4.87-.06a10.17,10.17,0,0,0,7.41-3.06,9.84,9.84,0,0,0,3.1-7.35A9.71,9.71,0,0,0,176.85,12.9Z"/>
	</symbol>

	<symbol id="icon_menu" viewBox="0 0 58 58">
		<title>Menu</title>
		<path d="M29,0A29,29,0,1,0,58,29,29,29,0,0,0,29,0Zm0,56A27,27,0,1,1,56,29,27,27,0,0,1,29,56ZM40.5,21.5h-23a1.5,1.5,0,0,0,0,3h23a1.5,1.5,0,0,0,0-3Zm0,6h-23a1.5,1.5,0,0,0,0,3h23a1.5,1.5,0,0,0,0-3Zm0,6h-23a1.5,1.5,0,0,0,0,3h23a1.5,1.5,0,0,0,0-3Z"/>
	</symbol>
	<symbol id="icon_newvideo" viewBox="0 0 58 58">
		<title>Create a new shoppable video</title>
		<path d="M29,0A29,29,0,1,0,58,29,29,29,0,0,0,29,0Zm0,56A27,27,0,1,1,56,29,27,27,0,0,1,29,56ZM20,16V41l5.05-2.53a9.5,9.5,0,1,0,15.89-7.95l4.06-2ZM42,37.5A7.5,7.5,0,1,1,34.5,30,7.5,7.5,0,0,1,42,37.5ZM38.5,36H36V33.5a1.5,1.5,0,0,0-3,0V36H30.5a1.5,1.5,0,0,0,0,3H33v2.5a1.5,1.5,0,0,0,3,0V39h2.5a1.5,1.5,0,0,0,0-3Z"/>
	</symbol>
	<symbol id="icon_campaign" viewBox="0 0 58 58">
		<title>Create a campaign</title>
		<path d="M29,0A29,29,0,1,0,58,29,29,29,0,0,0,29,0Zm0,56A27,27,0,1,1,56,29,27,27,0,0,1,29,56ZM23,34c11.71,0,18,5.9,18,5.9V18.2C41,18.1,34.67,24,23,24ZM43.29,17h-.58a.69.69,0,0,0-.7.71V40.32a.69.69,0,0,0,.7.71h.58a.69.69,0,0,0,.7-.71V17.69A.69.69,0,0,0,43.29,17ZM20.39,35.33h.67V34h1V24H12.63A2.64,2.64,0,0,0,10,26.65v4.68A2.64,2.64,0,0,0,12.63,34h2.82v1.32h.9a27.25,27.25,0,0,0,2.5,8.75,1.19,1.19,0,0,0,1.41.51l1.6-.91a1.06,1.06,0,0,0,.5-1.43A24.45,24.45,0,0,1,20.39,35.33Z"/>
	</symbol>
	<symbol id="icon_roi" viewBox="0 0 58 58">
		<title>Monitor your ROI</title>
		<path d="M29,0A29,29,0,1,0,58,29,29,29,0,0,0,29,0Zm0,56A27,27,0,1,1,56,29,27,27,0,0,1,29,56ZM18,39h6V23H18Zm8,0h6V18H26Zm8,0h6V26H34Z"/>
	</symbol>
</svg>